<?xml version="1.0" standalone="no"?>
<!DOCTYPE svg PUBLIC "-//W3C//DTD SVG 20010904//EN"
 "http://www.w3.org/TR/2001/REC-SVG-20010904/DTD/svg10.dtd">
<svg version="1.0" xmlns="http://www.w3.org/2000/svg"
 width="545.000000pt" height="545.000000pt" viewBox="0 0 545.000000 545.000000"
 preserveAspectRatio="xMidYMid meet">
<metadata>
Created by potrace 1.11, written by Peter Selinger 2001-2013
</metadata>
<g transform="translate(0.000000,545.000000) scale(0.100000,-0.100000)"
fill="#000000" stroke="none">
<path d="M2465 5396 l-16 -53 -87 -12 c-345 -47 -728 -187 -1052 -383 -122
-74 -307 -205 -331 -234 -13 -16 -12 -16 11 -4 14 7 23 10 20 7 -61 -70 -325
-325 -332 -321 -5 3 0 16 13 30 12 13 18 24 13 24 -10 0 -75 -74 -138 -155
l-39 -50 39 40 c22 22 51 54 65 70 26 31 49 43 49 25 0 -6 -8 -14 -17 -17 -25
-10 -55 -46 -123 -145 -209 -306 -365 -637 -441 -938 -40 -159 -45 -190 -31
-190 5 0 14 30 22 68 14 71 40 142 52 142 5 0 8 11 8 25 0 16 6 25 15 25 8 0
15 7 15 15 0 8 -4 15 -10 15 -5 0 -10 5 -10 11 0 5 4 7 10 4 5 -3 10 -1 10 4
0 6 6 10 13 9 7 -2 12 8 13 24 1 14 12 46 26 70 13 23 23 50 21 59 -2 8 5 24
17 34 11 10 20 29 20 42 0 16 7 27 19 30 11 3 18 10 15 16 -2 7 6 23 17 37 14
16 19 19 15 8 -3 -10 -1 -18 4 -18 6 0 10 7 10 15 0 8 3 15 8 15 4 0 16 17 27
38 22 41 40 63 47 57 2 -2 31 41 63 96 33 56 68 115 78 132 18 29 77 106 104
135 7 7 13 18 13 24 0 10 49 72 110 139 19 21 44 50 55 65 11 14 27 33 35 40
71 67 118 108 183 159 42 33 76 66 77 74 0 8 3 11 7 8 3 -4 15 3 27 16 19 21
120 87 132 87 3 0 16 11 30 25 14 14 29 25 34 25 6 0 10 7 10 16 0 8 4 13 9
10 5 -3 14 1 21 10 7 8 36 26 64 40 92 46 121 64 118 75 -2 7 4 9 12 6 8 -3
17 0 19 7 3 7 20 17 39 21 43 10 38 8 75 28 18 9 36 16 40 15 18 -5 112 34
117 48 4 11 14 14 34 9 29 -6 87 16 75 29 -4 4 0 4 9 1 19 -7 130 23 140 38 3
6 30 19 60 28 100 33 -15 10 -187 -38 -200 -56 -211 -58 -155 -32 97 45 411
123 582 144 60 7 284 24 322 25 36 0 31 7 -8 13 -25 3 -31 10 -43 50 l-14 47
-129 0 -129 0 -16 -54z m-625 -256 c-8 -5 -19 -10 -25 -10 -5 0 -3 5 5 10 8 5
20 10 25 10 6 0 3 -5 -5 -10z m-45 -18 c-6 -5 -26 -15 -45 -22 -19 -7 -71 -31
-114 -52 -43 -21 -81 -36 -84 -33 -3 2 40 25 94 50 54 25 106 50 114 55 19 11
47 13 35 2z m-375 -157 c-7 -8 -19 -15 -26 -15 -8 0 -14 -4 -14 -10 0 -5 -3
-9 -8 -7 -4 1 -45 -25 -92 -58 -217 -154 -222 -157 -203 -133 26 31 330 238
351 238 2 0 -1 -7 -8 -15z m0 -35 c-8 -5 -19 -10 -25 -10 -5 0 -3 5 5 10 8 5
20 10 25 10 6 0 3 -5 -5 -10z"/>
<path d="M2537 5305 c-139 -20 -140 -25 -3 -19 66 3 124 8 128 10 5 3 15 1 23
-6 8 -7 27 -9 50 -4 26 5 33 9 23 15 -8 5 15 8 57 7 39 0 60 -3 48 -5 -33 -6
-28 -19 8 -27 50 -10 59 -8 52 11 -5 14 -3 13 14 -3 11 -10 18 -23 15 -28 -3
-5 0 -6 7 -2 7 4 33 3 59 -2 26 -6 80 -16 120 -22 39 -7 72 -16 72 -22 0 -6
10 -8 21 -5 12 3 32 -1 44 -9 12 -8 29 -12 38 -8 8 3 26 -1 39 -9 39 -25 126
-49 149 -42 16 5 19 4 14 -6 -6 -9 -3 -11 8 -6 9 3 32 -2 49 -12 18 -11 65
-31 103 -45 39 -15 106 -44 150 -66 44 -21 89 -41 100 -42 11 -2 23 -7 27 -12
11 -16 95 -16 115 0 13 11 14 17 6 20 -7 3 -13 11 -13 17 0 13 -137 83 -157
81 -7 -1 -11 2 -8 6 12 19 -366 148 -543 186 -274 57 -617 78 -815 49z m960
-151 c-3 -3 -12 -4 -19 -1 -8 3 -5 6 6 6 11 1 17 -2 13 -5z"/>
<path d="M2610 5100 l55 -7 -45 -3 c-25 -2 -57 -3 -71 -2 -15 1 -33 -6 -40
-15 -12 -14 -11 -15 6 -10 11 3 70 9 130 13 101 6 155 14 92 14 -15 0 -27 5
-27 10 0 6 -31 9 -77 8 -78 -1 -78 -1 -23 -8z"/>
<path d="M3055 5091 c3 -5 -7 -11 -22 -13 -19 -3 -8 -7 32 -12 228 -31 543
-115 690 -185 86 -40 106 -46 116 -30 7 11 9 9 9 -6 0 -15 25 -33 93 -70 93
-51 310 -191 369 -240 18 -14 56 -47 83 -73 28 -26 66 -61 85 -77 19 -17 68
-68 109 -113 40 -45 77 -80 81 -77 5 3 12 -5 15 -17 4 -13 24 -45 44 -73 50
-67 133 -190 151 -223 8 -15 24 -43 36 -62 12 -19 25 -46 29 -60 4 -14 19 -37
32 -52 17 -17 24 -34 20 -47 -3 -11 1 -25 8 -31 7 -6 13 -22 13 -37 0 -15 6
-31 14 -37 8 -6 20 -21 26 -33 9 -17 9 -22 -3 -27 -8 -3 -15 -1 -15 4 0 6 -5
10 -11 10 -6 0 -8 -16 -6 -40 2 -25 0 -40 -7 -40 -6 0 -5 -4 2 -9 11 -7 11 -9
-2 -14 -9 -4 -16 -13 -16 -21 0 -45 -65 -53 -76 -10 -3 13 -13 24 -21 24 -8 0
-12 4 -9 9 9 14 -5 42 -17 34 -6 -3 -7 -1 -3 5 8 13 -51 132 -65 132 -5 0 -9
10 -9 22 0 12 -3 18 -7 14 -4 -3 -14 8 -23 26 -44 87 -68 126 -75 120 -4 -4
-5 2 -3 13 2 12 -2 19 -9 18 -8 -2 -10 4 -6 14 4 10 2 14 -5 9 -6 -3 -14 3
-18 16 -3 12 -10 26 -15 32 -5 6 -26 34 -46 61 -21 28 -53 68 -73 89 -219 242
-393 390 -585 496 -33 18 -73 41 -89 51 -16 9 -36 15 -44 11 -9 -3 -13 -1 -9
5 4 6 -6 16 -23 22 -17 5 -30 7 -30 4 0 -3 -8 0 -17 8 -33 26 -62 39 -88 39
-15 0 -23 4 -20 10 3 6 -1 7 -9 4 -9 -4 -16 -1 -16 6 0 6 -6 10 -12 7 -7 -2
-25 4 -39 14 -14 10 -29 16 -32 13 -2 -3 -20 1 -38 9 -19 7 -40 12 -48 9 -9
-3 -11 0 -6 8 6 10 4 12 -9 7 -9 -4 -32 0 -51 7 -18 8 -36 12 -39 8 -3 -3 -6
0 -6 6 0 7 -7 12 -15 12 -31 0 -13 -20 28 -30 104 -28 153 -44 258 -86 443
-177 794 -460 1062 -856 164 -244 290 -559 336 -844 22 -133 28 -198 37 -394
6 -140 13 -183 15 -89 1 86 9 203 14 208 3 2 5 -61 5 -140 0 -311 -71 -659
-186 -916 -8 -17 -14 -35 -14 -41 0 -5 -11 -29 -25 -54 -13 -24 -36 -75 -50
-113 -14 -39 -31 -74 -38 -80 -12 -10 -18 -33 -18 -67 0 -9 -7 -22 -15 -29 -8
-6 -14 -18 -14 -25 0 -8 -4 -14 -10 -14 -5 0 -10 -11 -10 -25 0 -14 5 -25 11
-25 7 0 4 -11 -6 -27 -13 -19 -15 -28 -6 -31 9 -3 9 -7 0 -18 -8 -10 -8 -14 0
-14 6 0 11 -7 11 -15 0 -11 -7 -14 -27 -10 -23 4 -24 4 -8 -4 11 -5 29 -12 39
-15 12 -4 16 -10 10 -16 -6 -6 -21 -6 -41 2 -40 15 -58 2 -68 -50 -7 -38 -71
-116 -87 -106 -5 3 -7 2 -6 -3 4 -15 -22 -53 -37 -53 -8 0 -15 -7 -15 -15 0
-8 -17 -23 -38 -34 -21 -11 -44 -27 -51 -35 -8 -9 -19 -16 -25 -16 -6 0 -20
-8 -31 -17 -18 -14 -19 -15 -1 -9 16 5 17 4 6 -9 -7 -8 -18 -15 -26 -15 -7 0
-15 -9 -19 -19 -3 -11 -12 -22 -20 -25 -8 -3 -15 -11 -15 -19 0 -7 -17 -19
-37 -26 -79 -26 -93 -34 -94 -50 0 -10 -2 -11 -6 -3 -6 15 -24 16 -20 1 1 -6
-12 -18 -28 -27 -17 -10 -40 -27 -53 -40 -12 -12 -29 -22 -37 -22 -8 0 -15 -4
-15 -10 0 -5 -6 -9 -12 -7 -7 1 -12 -4 -11 -10 2 -7 -7 -13 -20 -13 -24 -1
-57 -22 -57 -37 0 -6 -12 -13 -27 -16 -16 -3 -41 -18 -57 -34 -19 -17 -27 -21
-23 -10 4 11 2 17 -7 17 -8 0 -16 -7 -20 -15 -3 -8 -16 -14 -28 -14 -32 2 -94
-27 -102 -46 -4 -11 -13 -14 -26 -10 -11 3 -20 3 -20 -2 0 -4 -11 -9 -25 -9
-30 -2 -57 -22 -49 -36 4 -6 10 -5 15 3 7 11 9 11 9 -1 0 -9 9 -16 20 -17 11
-1 20 2 20 8 0 5 -8 9 -17 10 -10 1 0 7 22 13 41 13 75 11 75 -5 0 -5 7 -9 15
-9 8 0 15 5 15 11 0 5 4 7 10 4 5 -3 24 1 42 9 18 8 47 19 63 24 17 5 29 14
28 20 -1 5 4 13 13 16 8 3 12 2 9 -4 -3 -6 -2 -10 3 -10 5 0 12 9 15 20 4 14
10 18 23 13 12 -4 15 -3 10 5 -4 8 -2 10 7 6 17 -6 149 57 180 87 11 10 27 19
34 19 7 0 13 5 13 10 0 6 5 10 12 10 6 0 42 23 80 50 38 28 74 50 81 50 8 0 8
3 -2 9 -10 6 -10 10 -1 16 6 4 14 5 17 2 2 -3 12 1 21 8 10 8 40 29 67 48 31
22 49 41 47 51 -2 10 4 16 17 16 11 0 28 11 37 25 9 14 21 25 27 25 14 0 207
201 207 216 0 7 7 15 15 18 9 3 15 12 13 20 -2 7 16 32 39 54 23 23 54 58 68
79 14 21 45 65 70 98 24 33 44 64 44 69 1 5 7 17 15 25 17 20 112 203 149 287
15 34 45 113 67 175 35 97 38 114 25 121 -23 13 -18 37 10 50 17 8 28 24 35
52 6 23 15 57 20 76 30 108 65 322 57 344 -3 8 1 35 9 61 8 29 10 53 5 63 -5
9 -5 25 2 40 8 17 8 28 -1 43 -14 22 -15 32 -3 25 14 -9 18 13 20 112 2 75 -1
93 -13 98 -9 3 -16 10 -16 15 0 4 7 6 16 2 12 -4 14 0 10 18 -3 13 -10 62 -16
109 -14 104 -69 327 -109 437 -28 78 -39 105 -82 199 -11 22 -19 46 -19 52 0
7 -4 12 -10 12 -5 0 -10 4 -10 9 0 6 -10 27 -22 47 -12 21 -23 47 -23 58 -1
11 -7 22 -13 24 -7 2 -12 10 -12 18 0 8 -6 14 -14 14 -15 0 -29 29 -24 51 2 9
-5 13 -19 11 -13 -2 -23 1 -23 7 0 6 -14 32 -30 58 -17 26 -28 54 -25 61 7 18
-53 104 -67 96 -7 -4 -8 -2 -4 5 5 7 -6 27 -26 49 -18 21 -46 55 -63 76 -60
77 -73 88 -83 70 -8 -13 -13 -13 -45 8 -20 13 -39 31 -42 41 -4 9 -10 15 -14
13 -4 -3 -23 11 -42 31 -40 42 -11 30 39 -16 18 -17 41 -31 51 -31 11 0 21 -9
24 -21 5 -20 27 -18 27 2 0 6 -4 8 -9 4 -5 -3 -12 3 -16 14 -3 10 -21 26 -40
36 -19 9 -35 18 -35 21 0 3 5 2 12 -2 7 -4 8 -3 4 4 -4 6 -13 9 -21 5 -10 -3
-15 2 -15 16 0 12 -5 21 -11 21 -6 0 -27 18 -47 39 -22 24 -45 39 -57 38 -13
-1 -20 4 -19 14 1 11 -5 15 -17 12 -21 -6 -36 -23 -20 -23 6 0 24 -13 40 -29
17 -16 38 -34 48 -40 10 -5 15 -13 11 -16 -4 -4 -17 3 -29 14 -13 12 -29 19
-36 17 -7 -3 -10 1 -7 9 4 10 -15 28 -58 54 -57 36 -89 58 -121 86 -7 6 -25
18 -40 28 -16 10 -27 21 -24 23 7 7 45 -15 77 -44 34 -32 91 -55 103 -43 9 9
-46 51 -67 51 -4 0 -6 6 -3 13 3 8 -4 14 -19 15 -26 2 -157 70 -162 84 -4 10
-32 11 -32 0 0 -4 20 -18 45 -31 25 -13 43 -26 40 -29 -6 -6 -54 17 -74 36 -8
8 -38 25 -68 38 -29 14 -53 29 -53 35 0 6 3 9 8 7 4 -3 22 -11 40 -18 17 -8
32 -18 32 -22 0 -4 5 -8 10 -8 6 0 10 4 10 9 0 11 -80 51 -102 51 -8 0 -25 9
-38 20 -13 11 -29 20 -37 20 -7 0 -21 4 -31 9 -31 17 -57 25 -92 27 -44 3
-133 41 -125 53 3 5 1 12 -5 16 -5 3 -10 1 -10 -4 0 -6 -7 -11 -16 -11 -8 0
-13 3 -11 8 3 4 -15 5 -40 3 -32 -2 -43 0 -39 8 4 6 15 11 24 11 15 1 15 2 2
9 -24 14 -88 24 -70 12 12 -9 10 -11 -10 -11 -14 0 -43 5 -65 10 -97 24 -184
40 -242 46 -46 5 -60 10 -56 20 3 9 -2 14 -17 14 -11 0 -19 -4 -15 -9z m730
-191 c3 -5 2 -10 -4 -10 -5 0 -13 5 -16 10 -3 6 -2 10 4 10 5 0 13 -4 16 -10z
m755 -510 c0 -5 -4 -10 -10 -10 -5 0 -10 5 -10 10 0 6 5 10 10 10 6 0 10 -4
10 -10z m160 -101 c0 -6 29 -40 65 -77 36 -36 64 -70 62 -76 -2 -5 -21 11 -43
35 -21 24 -56 61 -76 81 -42 41 -45 48 -23 48 8 0 15 -5 15 -11z m46 -106 c-7
-7 -26 7 -26 19 0 6 6 6 15 -2 9 -7 13 -15 11 -17z m-1 -23 c3 -5 1 -10 -4
-10 -6 0 -11 5 -11 10 0 6 2 10 4 10 3 0 8 -4 11 -10z m125 -65 c0 -8 -4 -15
-10 -15 -5 0 -10 7 -10 15 0 8 5 15 10 15 6 0 10 -7 10 -15z m242 -627 c11
-12 17 -30 15 -40 -3 -10 -1 -20 3 -23 14 -9 39 -65 29 -65 -6 0 -5 -8 1 -20
9 -17 8 -20 -11 -20 -19 0 -21 4 -15 35 7 34 1 41 -28 36 -4 -1 -6 13 -4 30 4
23 -1 38 -14 51 -10 10 -16 23 -13 28 9 15 16 12 37 -12z m-162 -143 c0 -5 -5
-3 -10 5 -5 8 -10 20 -10 25 0 6 5 3 10 -5 5 -8 10 -19 10 -25z m215 -45 c3
-5 1 -10 -4 -10 -6 0 -11 5 -11 10 0 6 2 10 4 10 3 0 8 -4 11 -10z m36 -125
c10 -48 20 -94 23 -101 3 -8 1 -14 -4 -14 -7 0 -23 47 -25 75 0 6 -4 16 -9 23
-4 7 -5 16 -2 19 3 3 -1 21 -9 40 -18 44 -20 72 -4 56 6 -6 20 -51 30 -98z
m-224 63 c-3 -8 -6 -5 -6 6 -1 11 2 17 5 13 3 -3 4 -12 1 -19z m22 -63 l0 -20
-9 20 c-5 11 -9 27 -9 35 -1 13 0 13 9 0 5 -8 9 -24 9 -35z m39 -180 c0 -11
-8 12 -18 50 -10 39 -18 79 -18 90 0 11 8 -11 18 -50 10 -38 18 -79 18 -90z
m196 28 c12 -41 18 -97 10 -90 -12 12 -33 107 -23 107 4 0 10 -8 13 -17z m33
-35 c-3 -8 -6 -5 -6 6 -1 11 2 17 5 13 3 -3 4 -12 1 -19z m-220 -65 c-3 -10
-5 -4 -5 12 0 17 2 24 5 18 2 -7 2 -21 0 -30z m211 -26 c5 -24 -15 -21 -21 4
-3 13 -1 19 6 16 7 -2 13 -11 15 -20z m47 -117 c6 -64 6 -64 -8 -29 -8 20 -14
63 -15 95 0 50 1 55 9 29 5 -16 11 -59 14 -95z m-242 50 c4 -36 3 -46 -3 -30
-8 25 -13 97 -6 89 2 -2 6 -29 9 -59z m206 -28 c1 -31 3 -122 6 -201 2 -79 1
-149 -2 -155 -4 -6 -6 -30 -6 -53 2 -33 -2 -43 -14 -43 -13 0 -13 3 -3 15 7 8
8 15 2 15 -9 0 -10 145 -1 154 5 5 2 225 -4 288 -4 36 -2 45 8 42 9 -4 14 -25
14 -62z m-202 -64 c-3 -7 -5 -2 -5 12 0 14 2 19 5 13 2 -7 2 -19 0 -25z m293
-40 c0 -6 -7 -5 -15 2 -8 7 -15 17 -15 22 0 6 7 5 15 -2 8 -7 15 -17 15 -22z
m-100 -416 c0 -13 -12 -22 -22 -16 -10 6 -1 24 13 24 5 0 9 -4 9 -8z m-10 -58
c0 -2 -7 -4 -15 -4 -8 0 -15 4 -15 10 0 5 7 7 15 4 8 -4 15 -8 15 -10z m-18
-50 c-6 -11 -20 -75 -33 -144 -12 -69 -26 -127 -30 -130 -4 -3 -9 -14 -12 -25
-7 -29 4 52 13 100 43 220 49 240 62 227 6 -6 6 -16 0 -28z m-382 -924 c0 -5
-5 -10 -11 -10 -5 0 -7 5 -4 10 3 6 8 10 11 10 2 0 4 -4 4 -10z m-17 -84 c-3
-4 -9 -3 -13 4 -6 9 -10 8 -17 -5 -9 -15 -11 -15 -16 -1 -8 20 22 38 39 22 6
-6 10 -15 7 -20z m-53 -40 c0 -3 -4 -8 -10 -11 -5 -3 -10 -1 -10 4 0 6 5 11
10 11 6 0 10 -2 10 -4z m-38 -47 c-21 -8 -30 10 -11 22 8 5 16 3 21 -4 4 -7 0
-15 -10 -18z m-73 -72 c-2 -1 -11 -8 -20 -15 -13 -9 -16 -9 -16 3 0 8 9 15 20
15 11 0 18 -1 16 -3z m-279 -332 c-7 -8 -20 -15 -29 -14 -11 0 -9 3 7 9 12 5
22 15 22 21 0 7 3 9 6 6 4 -4 1 -13 -6 -22z m-380 -289 c0 -2 -7 -7 -16 -10
-8 -3 -12 -2 -9 4 6 10 25 14 25 6z m-80 -26 c0 -5 -2 -10 -4 -10 -3 0 -8 5
-11 10 -3 6 -1 10 4 10 6 0 11 -4 11 -10z m-227 -117 c-7 -2 -19 -2 -25 0 -7
3 -2 5 12 5 14 0 19 -2 13 -5z m-49 -21 c2 -4 -6 -9 -20 -10 -13 -1 -24 3 -24
8 0 12 37 14 44 2z"/>
<path d="M2778 5083 c6 -2 18 -2 25 0 6 3 1 5 -13 5 -14 0 -19 -2 -12 -5z"/>
<path d="M2843 5083 c15 -2 37 -2 50 0 12 2 0 4 -28 4 -27 0 -38 -2 -22 -4z"/>
<path d="M2953 5079 c14 -8 22 -8 30 0 8 8 3 11 -18 11 -26 -1 -28 -2 -12 -11z"/>
<path d="M2453 5063 c9 -2 23 -2 30 0 6 3 -1 5 -18 5 -16 0 -22 -2 -12 -5z"/>
<path d="M2330 5050 c-30 -4 -66 -12 -80 -19 l-25 -12 25 6 c14 3 59 10 100
16 120 17 104 25 -20 9z"/>
<path d="M3330 5056 c0 -2 7 -7 16 -10 8 -3 12 -2 9 4 -6 10 -25 14 -25 6z"/>
<path d="M3408 5033 c6 -2 18 -2 25 0 6 3 1 5 -13 5 -14 0 -19 -2 -12 -5z"/>
<path d="M2198 5013 c7 -3 16 -2 19 1 4 3 -2 6 -13 5 -11 0 -14 -3 -6 -6z"/>
<path d="M2148 5003 c7 -3 16 -2 19 1 4 3 -2 6 -13 5 -11 0 -14 -3 -6 -6z"/>
<path d="M1978 4953 c7 -3 16 -2 19 1 4 3 -2 6 -13 5 -11 0 -14 -3 -6 -6z"/>
<path d="M1890 4930 c-30 -11 -60 -20 -67 -20 -27 0 -66 -21 -57 -30 6 -6 42
3 99 26 121 49 133 61 25 24z"/>
<path d="M1690 4854 c0 -17 29 -18 52 -1 14 11 12 13 -18 14 -23 1 -34 -4 -34
-13z"/>
<path d="M2708 4823 c7 -3 16 -2 19 1 4 3 -2 6 -13 5 -11 0 -14 -3 -6 -6z"/>
<path d="M2783 4823 c15 -2 37 -2 50 0 12 2 0 4 -28 4 -27 0 -38 -2 -22 -4z"/>
<path d="M1611 4806 c-10 -12 -8 -13 9 -9 25 7 37 23 17 23 -8 0 -20 -6 -26
-14z"/>
<path d="M2455 4805 c-44 -8 -86 -14 -94 -14 -8 -1 -12 -3 -9 -6 2 -3 40 0 84
6 43 6 120 14 169 18 l90 8 -80 0 c-44 0 -116 -5 -160 -12z"/>
<path d="M2895 4815 c11 -3 67 -9 125 -15 58 -5 119 -12 135 -15 25 -4 23 -2
-10 11 -26 10 -80 17 -155 19 -63 2 -106 2 -95 0z"/>
<path d="M3222 4781 c-10 -6 -4 -10 18 -15 18 -3 40 -6 49 -6 13 0 14 2 2 9
-8 5 -20 7 -28 4 -7 -3 -13 0 -13 6 0 13 -10 14 -28 2z"/>
<path d="M3053 4763 c9 -2 23 -2 30 0 6 3 -1 5 -18 5 -16 0 -22 -2 -12 -5z"/>
<path d="M3123 4749 c9 -6 15 -14 12 -19 -7 -12 53 -56 87 -64 15 -3 46 0 70
8 37 13 44 13 58 1 9 -8 21 -15 26 -15 5 0 2 5 -6 11 -12 8 -10 9 9 7 40 -5
35 20 -6 31 -46 13 -76 14 -69 2 10 -15 -22 -33 -58 -34 -48 -1 -86 21 -93 55
-4 20 -11 28 -27 28 -19 -1 -19 -2 -3 -11z"/>
<path d="M1460 4725 c0 -9 6 -12 15 -9 8 4 15 10 15 15 0 5 -7 9 -15 9 -8 0
-15 -7 -15 -15z"/>
<path d="M2672 4729 c-18 -7 -22 -14 -17 -29 9 -29 -4 -25 -15 4 -9 24 -12 25
-115 24 -68 -1 -111 -5 -118 -13 -7 -6 -19 -10 -27 -8 -12 4 -13 3 -1 -5 8 -6
10 -15 6 -22 -6 -9 -4 -11 5 -5 10 6 12 3 8 -13 -4 -14 -2 -19 8 -15 10 4 12
-5 7 -44 -4 -38 -2 -53 12 -66 22 -22 57 -22 86 2 19 16 25 16 37 5 32 -32
101 -9 103 34 l1 27 7 -25 c9 -32 51 -48 86 -32 23 11 25 16 25 86 0 100 -26
124 -98 95z m48 -34 c0 -8 -2 -15 -4 -15 -2 0 -6 7 -10 15 -3 8 -1 15 4 15 6
0 10 -7 10 -15z m-122 -97 c2 -25 0 -29 -8 -18 -12 18 -13 50 -2 50 4 0 9 -15
10 -32z m132 7 c0 -33 -15 -33 -16 0 -1 14 2 25 7 25 5 0 9 -11 9 -25z m-255
-22 c4 -15 2 -23 -5 -23 -6 0 -8 5 -5 10 3 6 2 10 -2 10 -5 0 -9 9 -9 20 0 23
11 14 21 -17z"/>
<path d="M1428 4703 c7 -3 16 -2 19 1 4 3 -2 6 -13 5 -11 0 -14 -3 -6 -6z"/>
<path d="M3460 4664 c0 -11 -6 -14 -22 -9 -21 5 -21 5 2 -9 29 -18 44 -20 35
-7 -3 6 7 6 27 1 29 -9 47 -25 48 -41 0 -16 -172 -90 -250 -108 -81 -19 -262
-44 -400 -56 -104 -9 -152 -16 -147 -21 6 -6 286 22 427 42 106 15 261 52 423
101 85 26 106 44 57 51 -13 2 -33 10 -45 18 -21 14 -130 54 -147 54 -4 0 -8
-7 -8 -16z"/>
<path d="M1330 4644 c-49 -26 -131 -94 -114 -94 8 0 66 40 84 60 8 8 31 23 50
32 19 9 28 17 20 16 -8 0 -26 -6 -40 -14z"/>
<path d="M1840 4620 c-9 -6 -10 -10 -3 -10 6 0 15 5 18 10 8 12 4 12 -15 0z"/>
<path d="M3460 4599 c0 -5 5 -7 10 -4 6 3 10 8 10 11 0 2 -4 4 -10 4 -5 0 -10
-5 -10 -11z"/>
<path d="M3485 4590 c-3 -5 -2 -10 4 -10 5 0 13 5 16 10 3 6 2 10 -4 10 -5 0
-13 -4 -16 -10z"/>
<path d="M3683 4550 c-15 -16 -32 -30 -37 -30 -6 0 -1 7 10 16 18 14 18 15 -4
4 -12 -6 -20 -15 -17 -21 4 -5 -12 -42 -35 -81 -22 -39 -38 -78 -36 -85 9 -23
22 -8 82 95 31 53 64 105 72 115 26 30 -5 18 -35 -13z"/>
<path d="M3772 4528 c5 -15 58 -24 58 -10 0 5 -10 12 -22 16 -34 9 -40 7 -36
-6z"/>
<path d="M3605 4520 c-3 -5 -1 -10 4 -10 6 0 11 5 11 10 0 6 -2 10 -4 10 -3 0
-8 -4 -11 -10z"/>
<path d="M2570 4485 c0 -22 4 -25 30 -23 24 2 30 7 30 25 0 19 -5 23 -30 23
-25 0 -30 -4 -30 -25z"/>
<path d="M3728 4477 c-42 -55 -80 -133 -76 -157 4 -30 28 -45 59 -37 18 5 38
28 68 81 49 87 50 114 4 132 -30 13 -32 12 -55 -19z m52 -22 c0 -19 -56 -119
-75 -135 -32 -27 -24 15 15 80 41 68 60 85 60 55z"/>
<path d="M1671 4476 c-10 -11 -5 -14 24 -14 40 0 40 0 9 16 -17 9 -24 8 -33
-2z"/>
<path d="M1570 4435 l-34 -25 55 -2 c30 0 68 -1 85 -2 40 -1 34 22 -7 31 -16
3 -32 10 -35 14 -9 15 -29 10 -64 -16z"/>
<path d="M1072 4430 c-7 -11 -8 -20 -3 -20 9 0 24 30 18 36 -1 2 -8 -6 -15
-16z"/>
<path d="M3970 4435 c7 -8 17 -15 22 -15 6 0 5 7 -2 15 -7 8 -17 15 -22 15 -6
0 -5 -7 2 -15z"/>
<path d="M3832 4413 c-10 -16 -33 -54 -51 -85 -35 -62 -35 -90 1 -109 25 -14
68 3 68 26 0 8 3 15 8 15 11 0 72 115 72 137 0 49 -67 60 -98 16z m58 -24 c0
-6 -14 -36 -31 -65 -17 -30 -27 -54 -22 -54 13 0 -21 -20 -34 -20 -22 0 -14
27 25 89 34 55 62 77 62 50z"/>
<path d="M2510 4404 c-252 -22 -594 -28 -677 -11 -68 13 -101 8 -50 -8 43 -14
343 -17 522 -5 99 6 228 14 288 17 59 3 107 10 107 14 0 10 2 10 -190 -7z"/>
<path d="M3942 4353 c-34 -49 -72 -131 -72 -157 0 -34 33 -52 67 -37 16 8 23
17 19 27 -3 8 -2 13 3 9 10 -6 81 115 81 138 0 23 -28 47 -55 47 -14 0 -31
-11 -43 -27z m58 -24 c0 -12 -55 -115 -72 -136 -12 -15 -28 -8 -28 12 0 21 73
134 88 135 6 0 12 -5 12 -11z"/>
<path d="M1476 4349 c-9 -13 -16 -28 -16 -34 0 -19 97 -138 122 -151 15 -8 29
-9 39 -3 11 7 9 9 -9 9 -26 0 -72 41 -72 65 0 12 7 8 26 -12 18 -20 21 -22 13
-6 -17 29 5 73 37 73 23 0 40 25 23 35 -5 4 -23 4 -39 0 -19 -4 -30 -3 -30 4
0 6 10 11 22 11 29 0 18 9 -18 14 -16 2 -41 7 -55 11 -21 5 -30 2 -43 -16z
m62 -31 c7 -7 12 -23 12 -37 l0 -24 -25 23 c-27 25 -33 50 -12 50 7 0 18 -5
25 -12z"/>
<path d="M3151 4299 c-20 -101 -24 -108 -63 -100 l-33 7 3 57 c3 70 -13 75
-22 7 -4 -27 -10 -51 -14 -53 -4 -3 -22 -2 -41 0 l-33 6 4 54 c3 29 1 56 -4
59 -4 3 -9 -2 -9 -10 -1 -9 -3 -20 -4 -26 -1 -5 -3 -23 -4 -40 -1 -28 -3 -30
-41 -30 l-40 0 0 60 c0 77 -18 79 -22 3 l-3 -58 -37 -3 -38 -3 0 55 c0 38 -4
56 -12 56 -9 0 -13 -16 -11 -50 1 -45 -1 -51 -22 -56 -36 -9 -45 3 -45 57 0
40 -3 49 -17 49 -34 0 -45 -16 -42 -60 3 -32 -1 -44 -14 -52 -32 -17 -47 -2
-47 46 0 41 -10 63 -22 51 -3 -3 -2 -26 2 -53 9 -53 1 -64 -45 -60 -28 3 -31
7 -39 56 -5 28 -13 52 -17 52 -11 0 -11 -24 0 -73 8 -31 6 -39 -9 -47 -10 -6
-30 -10 -44 -10 -20 0 -26 5 -26 23 -1 12 -7 36 -16 52 l-14 30 4 -31 c3 -18
8 -43 11 -57 6 -21 2 -26 -26 -36 -46 -16 -46 -16 -64 39 -9 28 -21 50 -26 50
-12 0 -12 0 6 -50 19 -55 19 -55 -10 -68 -45 -20 -52 -15 -80 63 -15 41 -32
75 -37 75 -6 0 -7 -8 -3 -17 4 -10 17 -46 30 -80 l24 -63 -29 -15 c-43 -22
-49 -19 -70 30 -11 25 -24 45 -30 45 -6 0 1 -23 15 -50 l25 -50 -32 -20 c-18
-11 -36 -20 -39 -20 -3 0 -17 20 -30 45 -33 61 -46 57 -14 -4 l25 -50 -36 -22
c-21 -13 -39 -18 -43 -12 -3 5 -17 26 -30 47 -13 20 -26 35 -29 32 -3 -3 8
-25 23 -48 l28 -42 -27 -23 c-37 -32 -47 -29 -76 17 -14 22 -28 40 -32 40 -13
0 -9 -9 17 -48 14 -20 25 -42 25 -49 0 -12 -38 -39 -44 -31 -2 2 -34 41 -71
88 -38 47 -71 86 -75 88 -3 1 -14 -6 -24 -17 -17 -19 -16 -22 53 -108 39 -48
71 -91 71 -94 0 -4 -11 -14 -24 -23 -23 -15 -25 -14 -61 25 -20 23 -39 38 -42
35 -4 -3 10 -22 30 -43 20 -20 37 -39 37 -43 0 -15 -58 -61 -64 -51 -12 20
-27 12 -17 -8 8 -14 4 -24 -20 -46 l-29 -29 -40 39 c-22 21 -42 36 -46 33 -3
-4 13 -23 35 -43 23 -21 41 -40 41 -44 0 -3 -12 -18 -25 -34 l-24 -27 -45 32
c-60 41 -69 31 -11 -12 46 -35 47 -38 11 -84 -14 -17 -18 -16 -86 29 -39 26
-74 45 -76 42 -3 -3 26 -27 65 -53 40 -26 70 -50 68 -53 -1 -3 -9 -18 -16 -33
-17 -34 -25 -34 -78 -3 -24 13 -43 20 -43 15 0 -4 20 -20 45 -34 45 -27 45
-27 30 -56 -21 -41 -29 -43 -74 -20 -62 31 -72 23 -13 -10 28 -17 52 -32 52
-34 0 -12 -33 -66 -41 -66 -5 0 -27 9 -49 20 -44 22 -50 24 -50 11 0 -4 22
-18 50 -29 l50 -21 -14 -33 c-17 -40 -32 -44 -82 -23 -20 8 -39 13 -42 10 -8
-7 -2 -11 48 -27 38 -13 45 -19 42 -39 -1 -13 -6 -27 -10 -31 -5 -5 -57 6
-116 22 -60 17 -110 29 -112 27 -2 -2 -5 -14 -6 -27 -3 -21 5 -25 104 -54 91
-26 108 -34 108 -51 0 -37 -13 -46 -50 -35 -19 6 -44 10 -55 10 -31 0 1 -18
47 -25 32 -6 38 -11 38 -32 0 -35 -17 -62 -37 -58 -63 13 -83 14 -78 5 3 -6
17 -10 30 -10 13 0 35 -4 48 -9 21 -8 23 -14 18 -47 l-6 -38 -55 1 c-42 2 -49
0 -30 -7 14 -4 38 -8 53 -9 27 -1 28 -3 25 -43 l-3 -43 -52 3 c-32 2 -53 -1
-53 -7 0 -5 24 -11 53 -13 l52 -3 0 -40 c0 -39 -1 -40 -40 -46 l-40 -5 40 -5
c39 -4 40 -5 40 -44 l0 -40 -45 -3 c-25 -2 -49 -8 -55 -14 -7 -7 6 -9 43 -6
58 6 72 -5 72 -55 0 -21 -6 -25 -57 -35 l-58 -11 57 4 c51 3 57 1 62 -18 15
-55 9 -65 -44 -72 -27 -4 -50 -12 -50 -17 0 -10 22 -8 82 7 22 6 26 3 32 -26
10 -53 8 -58 -31 -65 -21 -4 -45 -11 -53 -15 -9 -6 0 -7 25 -2 71 12 80 10 83
-18 3 -30 -7 -36 -126 -74 -75 -25 -83 -29 -78 -49 3 -11 6 -24 6 -28 0 -3 45
9 101 28 114 39 125 40 133 18 12 -31 5 -42 -40 -59 -25 -9 -43 -19 -40 -22 3
-3 23 2 46 11 54 21 56 21 69 -15 15 -44 16 -43 -35 -68 -59 -30 -51 -38 10
-10 26 11 49 19 51 17 8 -9 36 -70 33 -72 -2 -2 -22 -13 -45 -26 -24 -13 -43
-28 -43 -33 0 -5 20 3 44 17 25 14 49 26 53 26 5 0 17 -16 26 -35 l17 -36 -45
-27 c-62 -37 -57 -50 5 -15 l51 28 19 -25 c11 -14 20 -30 20 -37 0 -6 -30 -32
-66 -58 -36 -26 -63 -49 -61 -52 3 -2 34 16 68 41 35 26 68 45 73 43 5 -2 19
-16 30 -31 l21 -28 -45 -38 c-53 -46 -45 -54 10 -10 21 16 41 30 45 30 4 0 18
-12 32 -27 l23 -28 -40 -38 c-54 -51 -44 -60 14 -13 30 25 47 33 51 25 5 -6
-26 -45 -76 -95 -82 -83 -83 -83 -64 -104 l19 -21 63 63 64 63 17 -22 c9 -12
31 -27 49 -34 27 -9 37 -8 62 7 34 20 47 42 32 57 -6 6 -18 0 -34 -17 -39 -42
-92 -28 -84 23 5 30 21 43 54 44 15 0 22 2 16 4 -15 5 -17 30 -4 35 5 2 51 42
103 89 51 48 192 177 313 287 121 110 303 277 405 372 l185 172 51 -6 c102
-12 198 35 246 118 18 32 23 57 24 114 0 73 1 74 40 110 46 42 307 287 409
383 39 36 94 88 123 114 61 56 82 91 82 135 0 43 -26 94 -55 110 -20 11 -25
21 -25 52 0 31 -5 41 -24 49 -31 14 -65 -3 -68 -34 0 -12 -2 -27 -2 -34 -2
-23 -25 -38 -38 -25 -7 7 -25 12 -41 12 -25 0 -28 3 -25 28 2 22 8 28 36 30
20 2 32 9 32 18 0 12 -10 14 -42 12 l-43 -3 -3 -54 c-3 -58 8 -82 30 -63 8 6
19 7 27 3 11 -7 10 -14 -5 -35 -11 -14 -27 -28 -36 -31 -10 -4 -18 -12 -18
-18 0 -7 -71 -88 -157 -182 -86 -93 -198 -215 -248 -270 l-92 -100 -53 4 c-68
4 -121 -12 -166 -51 -58 -52 -79 -101 -79 -193 l0 -81 -120 -130 c-268 -291
-470 -504 -477 -504 -4 0 -8 15 -8 33 0 53 -40 76 -74 41 -12 -12 -16 -37 -16
-102 l0 -87 -114 -114 -115 -115 -20 25 c-11 13 -20 26 -20 29 -1 3 26 28 59
55 33 28 60 54 60 59 0 10 -8 3 -78 -57 -23 -20 -48 -37 -55 -37 -7 0 -30 22
-50 49 -36 46 -46 71 -29 71 4 0 23 14 42 31 l35 30 -46 -30 -46 -30 -20 22
c-11 12 -30 40 -42 61 -25 45 -32 36 68 93 75 44 54 42 -26 -2 -35 -19 -66
-35 -68 -35 -2 0 -15 19 -29 42 -41 68 -30 34 16 -50 52 -95 134 -214 195
-282 44 -49 45 -51 28 -70 -10 -11 -23 -20 -29 -20 -18 1 -112 113 -182 217
-118 175 -197 369 -245 593 -30 140 -33 446 -6 585 62 311 183 565 382 798
231 271 590 476 938 536 492 85 939 -28 1318 -333 313 -251 510 -592 581
-1001 30 -175 22 -426 -21 -610 -64 -284 -185 -519 -379 -741 l-80 -91 87 -87
87 -87 19 21 c19 21 18 21 -63 103 l-82 82 22 22 22 22 43 -35 c52 -43 56 -33
7 17 l-37 38 26 30 25 30 46 -35 c57 -44 61 -32 5 16 l-42 36 26 29 c28 32 24
33 95 -13 14 -9 22 -10 22 -3 0 6 -4 11 -8 11 -4 0 -23 13 -42 28 l-33 28 23
32 24 32 44 -26 c48 -28 71 -26 25 2 -62 39 -64 42 -41 80 l20 33 71 -37 c92
-47 87 -45 87 -35 0 5 -32 25 -71 43 -39 19 -73 38 -75 42 -8 12 25 68 40 68
7 0 30 -7 49 -15 55 -23 58 -17 5 11 -53 27 -53 27 -37 73 12 34 16 34 87 5
17 -7 32 -9 32 -5 0 5 -21 16 -47 26 -27 10 -49 19 -51 20 -1 1 5 18 13 38 16
40 25 43 74 26 18 -6 34 -9 37 -6 3 3 -12 10 -33 17 -52 17 -55 22 -47 65 6
31 10 36 28 31 11 -3 39 -9 61 -12 52 -7 27 12 -27 21 -45 8 -51 15 -39 48 l9
24 99 -18 c128 -24 130 -24 135 6 4 20 1 26 -16 30 -11 2 -43 8 -71 14 -27 6
-69 13 -93 17 -41 6 -43 7 -40 37 l3 31 60 -1 60 -1 -58 10 -58 10 3 42 3 41
53 -3 c32 -2 52 1 52 7 0 6 -21 11 -49 11 -28 0 -52 3 -54 8 -2 4 -2 24 0 44
l5 37 57 4 56 3 -57 2 c-54 2 -58 4 -59 27 -1 14 -2 33 -3 43 -1 14 9 18 52
20 28 2 52 8 52 13 0 6 -21 9 -52 7 l-53 -3 -3 41 -3 42 67 7 c37 4 77 11 88
16 19 8 -7 7 -140 -4 -14 -2 -20 7 -25 36 -3 21 -3 39 0 41 3 2 27 7 54 11 26
4 47 12 47 17 0 9 -19 7 -87 -9 -18 -4 -23 1 -32 33 -13 46 -10 51 37 59 20 3
44 11 52 16 11 8 4 8 -25 3 -71 -13 -78 -11 -87 21 -11 43 -6 51 47 64 26 7
45 15 42 18 -4 3 -27 0 -52 -7 -51 -14 -60 -10 -70 37 -6 30 -5 31 44 48 28 9
51 21 51 26 0 12 -1 12 -56 -11 -50 -22 -62 -19 -66 18 -3 19 10 28 97 68 55
26 101 47 103 49 1 1 -2 14 -9 28 l-11 25 -106 -50 c-99 -46 -107 -48 -119
-32 -22 30 -15 43 32 66 25 12 45 26 45 30 0 12 -7 10 -50 -17 -22 -14 -43
-25 -48 -25 -9 0 -47 68 -41 74 2 2 24 15 47 30 24 15 41 30 38 33 -3 4 -14 0
-23 -8 -10 -8 -31 -21 -46 -29 -27 -13 -30 -13 -48 10 -27 35 -24 45 21 77 43
30 56 56 15 29 -80 -52 -71 -50 -96 -15 l-23 32 43 39 c51 45 42 51 -15 9
l-39 -30 -22 21 c-13 12 -23 27 -23 34 0 7 28 37 62 68 34 31 58 59 55 63 -4
4 -24 -9 -45 -28 -20 -19 -49 -45 -64 -58 l-28 -24 -25 23 c-33 31 -32 40 10
80 19 18 32 36 30 39 -3 2 -23 -13 -45 -34 l-40 -39 -29 28 -30 29 34 40 c19
22 32 43 29 46 -3 3 -20 -12 -38 -33 -28 -33 -35 -37 -52 -28 -44 23 -48 39
-22 74 34 46 41 58 31 58 -5 0 -22 -18 -39 -40 -16 -22 -31 -40 -34 -40 -3 0
-18 11 -35 24 l-29 24 28 40 c15 23 26 47 24 54 -3 7 -15 -6 -29 -29 -29 -51
-47 -60 -71 -36 -17 18 -16 22 43 117 56 92 59 99 42 112 -10 7 -22 13 -28 13
-5 0 -36 -44 -68 -99 -56 -96 -58 -99 -82 -88 -30 14 -31 18 -4 69 11 22 18
46 16 52 -2 7 -16 -12 -31 -40 l-26 -53 -33 13 c-36 16 -39 31 -13 90 9 20 12
37 7 37 -5 0 -18 -22 -30 -50 -12 -27 -23 -50 -25 -50 -2 0 -20 7 -39 15 l-36
15 19 55 c10 30 16 55 11 55 -4 0 -15 -22 -25 -50 -20 -55 -19 -55 -65 -39
-36 13 -36 13 -16 69 18 50 18 50 6 50 -6 0 -16 -21 -24 -47 -13 -46 -14 -48
-47 -45 -19 1 -38 6 -42 10 -4 4 2 41 12 82 23 86 23 90 11 90 -4 0 -14 -28
-20 -61z m379 -799 c0 -20 -5 -30 -15 -30 -18 0 -30 24 -21 45 10 28 36 17 36
-15z m-648 -799 c56 -57 58 -60 58 -112 0 -97 -65 -176 -153 -186 -48 -6 -117
12 -117 29 0 6 -21 31 -46 56 l-47 45 6 57 c7 85 50 141 126 167 66 23 109 9
173 -56z m-966 -841 c0 -40 -17 -80 -35 -80 -3 0 -5 21 -5 48 2 81 3 84 22 80
13 -3 17 -14 18 -48z"/>
<path d="M2788 2723 c7 -3 16 -2 19 1 4 3 -2 6 -13 5 -11 0 -14 -3 -6 -6z"/>
<path d="M2858 2687 c25 -26 30 -47 6 -23 -21 21 -35 20 -27 -1 6 -16 5 -16
-10 -5 -20 17 -83 20 -97 6 -7 -7 -1 -9 20 -6 50 7 94 -63 69 -110 -15 -27 8
-14 35 20 19 23 20 24 27 6 7 -17 8 -17 8 -1 1 22 21 23 21 0 0 -9 3 -14 6
-10 22 22 -36 147 -69 147 -6 0 -1 -10 11 -23z"/>
<path d="M2654 2635 c-4 -9 -13 -14 -20 -11 -9 4 -14 -2 -13 -17 0 -12 3 -16
6 -9 2 6 9 12 14 12 6 0 5 -8 -1 -20 -6 -11 -15 -18 -19 -16 -4 3 -6 -7 -3
-22 4 -23 6 -24 12 -7 5 13 9 15 14 7 4 -7 12 -10 17 -6 5 3 8 0 7 -7 -2 -6 2
-13 8 -16 18 -6 25 60 8 73 -8 6 -12 18 -8 27 3 8 1 18 -5 22 -6 3 -14 -1 -17
-10z"/>
<path d="M2781 2606 c-8 -10 -6 -17 9 -31 20 -18 20 -17 20 8 0 31 -13 42 -29
23z"/>
<path d="M966 4334 c-3 -8 -10 -13 -15 -10 -5 3 -14 -1 -20 -8 -21 -25 4 -26
32 -2 28 24 34 36 18 36 -5 0 -12 -7 -15 -16z"/>
<path d="M873 4273 c-10 -10 -13 -14 -6 -9 7 4 22 6 33 3 13 -3 20 0 20 9 0
19 -24 18 -47 -3z"/>
<path d="M1380 4270 c-11 -11 -20 -26 -20 -34 0 -20 108 -149 132 -158 25 -10
55 6 63 33 7 22 -17 63 -81 138 -39 45 -64 51 -94 21z m94 -79 c47 -61 56 -81
34 -81 -14 0 -108 113 -108 130 0 26 31 5 74 -49z"/>
<path d="M844 4225 c-4 -9 -11 -14 -18 -13 -14 3 -56 -24 -56 -36 0 -5 8 -2
18 7 26 24 39 21 17 -3 -10 -11 -24 -20 -32 -20 -7 0 -12 -3 -12 -7 4 -23 -3
-42 -17 -47 -12 -5 -14 -1 -9 15 5 15 4 19 -5 14 -6 -4 -9 -18 -5 -34 4 -21
-1 -33 -25 -56 -20 -19 -29 -23 -25 -12 8 20 -5 23 -24 5 -11 -11 -12 -9 -6
11 7 24 7 24 -12 5 -27 -26 -76 -99 -106 -159 -14 -28 -48 -93 -75 -145 -93
-177 -193 -452 -235 -650 -52 -240 -63 -351 -60 -595 3 -202 21 -371 52 -460
11 -33 25 -80 31 -105 13 -51 72 -219 97 -277 9 -21 17 -40 18 -43 30 -98 197
-403 292 -535 57 -78 178 -226 217 -265 59 -59 63 -63 123 -127 32 -35 64 -63
71 -63 6 0 12 -4 12 -9 0 -15 147 -129 280 -217 266 -175 550 -292 891 -366
141 -31 149 -31 439 -34 308 -2 363 3 354 34 -5 13 -4 14 4 3 7 -10 14 -11 32
-1 12 6 29 9 37 6 13 -5 14 -4 3 9 -10 12 -10 15 1 15 8 0 34 10 59 22 25 12
52 20 60 19 11 -1 9 3 -5 14 -11 8 -25 13 -32 11 -7 -3 -15 -1 -18 4 -4 6 5
10 18 10 28 0 54 24 37 35 -5 3 -24 7 -40 7 -18 1 -30 6 -30 15 0 7 -3 13 -7
14 -5 0 -24 2 -43 5 -19 2 -30 1 -25 -4 10 -7 35 -48 35 -57 0 -3 -4 -5 -10
-5 -5 0 -10 7 -10 15 0 11 -13 14 -52 14 -29 0 -115 2 -191 3 -105 2 -137 0
-137 -10 0 -9 -5 -10 -20 -2 -11 5 -29 15 -40 20 -16 8 -20 7 -20 -5 0 -19 -8
-19 -45 1 -18 9 -42 13 -59 10 -16 -3 -35 -1 -43 5 -7 7 -31 12 -53 12 -22 0
-40 3 -40 8 0 4 -21 6 -47 4 -30 -3 -50 0 -55 8 -4 7 -11 12 -15 13 -4 0 -21
4 -38 8 -40 10 -98 22 -167 36 -31 6 -59 17 -61 24 -3 8 -30 21 -59 31 -29 9
-74 27 -99 41 -26 13 -53 24 -62 24 -8 0 -25 8 -38 19 -13 10 -41 24 -61 30
-21 7 -38 17 -38 22 0 5 -11 11 -25 15 -14 3 -25 10 -25 14 0 4 -8 10 -17 13
-20 6 -75 38 -83 48 -3 3 -21 17 -41 30 -53 35 -187 138 -233 179 -95 84 -267
270 -298 321 -11 19 -24 36 -28 39 -3 3 -15 20 -25 38 -11 17 -23 32 -28 32
-4 0 -6 4 -2 9 3 5 -5 21 -18 35 -25 27 -131 216 -142 255 -5 18 -4 22 5 16 7
-5 11 -4 9 1 -3 5 -11 23 -18 39 -7 17 -20 44 -28 61 -8 17 -16 37 -17 45 -2
8 -6 21 -9 29 -40 95 -99 332 -123 485 -19 129 -27 442 -13 565 51 452 229
876 515 1228 15 17 24 32 21 32 -21 0 -224 -284 -274 -384 -14 -28 -33 -62
-43 -76 -63 -92 -224 -572 -232 -690 -1 -8 -6 -18 -11 -22 -6 -3 -11 -29 -11
-56 -1 -28 -5 -48 -9 -45 -5 3 -15 -3 -22 -13 -14 -18 -14 -18 -15 1 -1 11 -4
14 -7 8 -2 -7 -9 -13 -14 -13 -6 0 -8 4 -5 9 3 5 -3 11 -14 14 -11 3 -19 9
-18 14 2 4 -1 10 -7 13 -18 9 -41 64 -30 73 6 5 3 7 -7 3 -10 -3 -20 -1 -23 4
-4 6 -11 10 -17 10 -7 0 -7 -4 1 -14 6 -7 8 -27 5 -45 -10 -47 -20 -46 -15 2
3 34 1 40 -10 30 -11 -8 -17 -8 -27 3 -11 12 -10 15 3 21 12 4 13 8 5 13 -18
11 -3 29 19 23 11 -3 21 2 25 12 5 13 2 15 -14 10 -18 -6 -19 -4 -9 22 7 19 7
29 0 31 -16 5 -14 18 6 37 13 13 13 19 4 25 -10 5 -10 9 -2 14 6 4 9 12 6 17
-4 5 0 12 8 15 11 4 14 16 10 44 -4 29 0 46 16 68 25 36 26 48 6 56 -20 7 -19
47 1 72 15 19 16 19 9 -1 -6 -19 -5 -19 14 2 12 12 21 31 21 43 0 11 5 20 11
20 5 0 8 4 4 9 -3 5 4 26 16 45 17 29 19 39 9 51 -9 11 -9 15 -1 15 6 0 17 12
23 28 7 15 20 39 31 55 10 15 15 27 12 27 -4 0 3 12 14 26 12 15 21 31 21 37
0 13 64 116 95 151 14 16 25 33 25 37 0 4 14 28 30 52 17 25 30 49 30 54 0 15
56 86 167 211 30 34 34 52 12 52 -5 0 -12 -7 -15 -15z m-195 -256 c-16 -10
-23 -4 -14 10 3 6 11 8 17 5 6 -4 5 -9 -3 -15z m-77 -64 c-4 -25 -13 -31 -25
-18 -6 5 19 43 28 43 1 0 0 -11 -3 -25z m32 0 c-9 -14 -19 -24 -21 -21 -6 6
20 46 30 46 4 0 0 -11 -9 -25z m-41 -65 c-6 -24 -23 -37 -23 -18 0 12 18 38
26 38 1 0 0 -9 -3 -20z m-143 -289 c0 -6 -4 -13 -10 -16 -5 -3 -10 1 -10 9 0
9 5 16 10 16 6 0 10 -4 10 -9z m-120 -325 c0 -8 -4 -18 -10 -21 -5 -3 -10 3
-10 14 0 12 5 21 10 21 6 0 10 -6 10 -14z m-34 -112 c-4 -9 -9 -15 -11 -12 -3
3 -3 13 1 22 4 9 9 15 11 12 3 -3 3 -13 -1 -22z m-16 -94 c0 -5 -4 -10 -10
-10 -5 0 -10 5 -10 10 0 6 5 10 10 10 6 0 10 -4 10 -10z m17 -322 c-3 -7 -5
-2 -5 12 0 14 2 19 5 13 2 -7 2 -19 0 -25z m-47 -398 c0 -5 -2 -10 -4 -10 -3
0 -8 5 -11 10 -3 6 -1 10 4 10 6 0 11 -4 11 -10z m443 -690 c3 -11 1 -18 -4
-14 -5 3 -9 12 -9 20 0 20 7 17 13 -6z m-133 -152 c0 -11 -12 -10 -30 2 -12 7
-10 9 8 7 12 0 22 -5 22 -9z m30 -82 c-12 -12 -15 -8 -25 22 -7 23 -6 23 14 6
13 -12 17 -22 11 -28z m37 -53 c25 -65 134 -223 262 -382 90 -111 408 -409
457 -428 8 -3 14 -9 14 -14 0 -8 -38 8 -50 22 -3 3 -20 14 -37 24 -18 11 -33
26 -33 33 0 9 -6 12 -17 8 -10 -4 -14 -4 -11 0 7 6 -51 64 -64 64 -5 0 -8 7
-8 15 0 8 -6 15 -12 15 -15 0 -158 137 -158 151 0 5 -4 9 -9 9 -25 0 -139 131
-218 251 -48 74 -92 143 -96 154 -4 11 -14 26 -21 35 -19 22 -30 60 -16 60 6
0 14 -8 17 -17z m804 -869 l24 -26 -32 19 c-18 10 -33 21 -33 26 0 14 17 7 41
-19z m49 -34 c0 -5 -2 -10 -4 -10 -3 0 -8 5 -11 10 -3 6 -1 10 4 10 6 0 11 -4
11 -10z m805 -172 c14 -6 25 -15 25 -20 0 -13 -13 -9 -40 12 -28 22 -23 25 15
8z m-415 -20 c0 -6 -6 -5 -15 2 -8 7 -15 14 -15 16 0 2 7 1 15 -2 8 -4 15 -11
15 -16z m80 -30 c0 -6 -6 -5 -15 2 -8 7 -15 14 -15 16 0 2 7 1 15 -2 8 -4 15
-11 15 -16z m460 12 c0 -5 -4 -10 -10 -10 -5 0 -10 5 -10 10 0 6 5 10 10 10 6
0 10 -4 10 -10z m-380 -30 c13 -8 13 -10 -2 -10 -9 0 -20 5 -23 10 -8 13 5 13
25 0z m106 -37 c-6 -6 -86 19 -86 27 0 4 20 1 45 -8 25 -8 44 -17 41 -19z m54
-14 c0 -11 -3 -11 -24 -3 -23 9 -20 23 4 17 11 -3 20 -9 20 -14z m142 -15 c13
-8 18 -10 83 -19 41 -6 52 -11 43 -20 -3 -3 -34 -1 -69 6 -35 6 -75 12 -89 13
-14 1 -35 7 -47 14 -12 6 -29 9 -37 6 -9 -4 -16 -1 -16 6 0 14 108 9 132 -6z
m864 -11 c-10 -10 -19 5 -10 18 6 11 8 11 12 0 2 -7 1 -15 -2 -18z m-666 -23
c8 -5 11 -12 8 -16 -10 -9 -38 3 -38 16 0 12 10 13 30 0z m85 -10 c3 -5 -1
-10 -10 -10 -9 0 -13 5 -10 10 3 6 8 10 10 10 2 0 7 -4 10 -10z m96 -18 c-16
-5 -41 5 -41 17 0 7 10 6 26 -1 15 -7 21 -14 15 -16z m159 2 c0 -2 -12 -4 -26
-4 -14 0 -23 4 -20 9 6 8 46 4 46 -5z m-83 0 c-3 -3 -12 -4 -19 -1 -8 3 -5 6
6 6 11 1 17 -2 13 -5z"/>
<path d="M1287 4192 c-28 -31 -20 -59 36 -123 62 -74 89 -87 117 -59 27 27 25
42 -13 92 -34 44 -68 58 -92 38 -16 -14 -35 -5 -35 16 0 8 9 14 19 14 25 0 38
20 20 31 -21 13 -34 11 -52 -9z m133 -147 c0 -24 -23 -16 -48 16 -15 18 -21
36 -17 47 5 15 11 12 36 -16 16 -18 29 -39 29 -47z"/>
<path d="M2576 4138 c-81 -9 -216 -38 -161 -35 29 2 30 0 47 -68 16 -60 17
-64 13 -23 -2 27 -7 59 -11 72 -5 23 -2 24 66 36 39 7 73 10 74 9 2 -2 8 -29
14 -59 l10 -55 -5 58 c-5 53 -4 57 15 57 12 0 24 5 27 10 3 6 3 9 -2 9 -4 -1
-44 -6 -87 -11z"/>
<path d="M2720 4141 l45 -6 5 -85 6 -85 4 85 5 85 30 6 c17 4 -7 6 -55 6 -63
0 -73 -2 -40 -6z"/>
<path d="M2894 4133 l39 -4 -6 -57 c-4 -37 -3 -50 3 -37 5 11 9 35 9 53 1 29
4 32 34 32 35 0 105 -15 114 -24 3 -3 -2 -37 -12 -76 -10 -39 -15 -73 -13 -75
2 -3 12 29 22 70 20 85 25 88 109 59 51 -17 54 -26 33 -86 -8 -21 -10 -38 -7
-38 4 0 14 21 23 48 17 54 29 57 110 19 l48 -22 -26 -55 c-33 -70 -45 -100
-39 -100 2 0 20 34 39 75 19 41 37 75 40 75 4 0 116 -59 125 -66 2 -2 -8 -23
-23 -48 -36 -61 -33 -72 4 -13 17 26 34 47 38 47 5 0 30 -15 55 -33 l47 -34
-70 -93 c-54 -72 -67 -96 -59 -107 21 -25 37 -13 101 72 34 47 68 85 74 85 6
0 30 -16 53 -36 l42 -37 -35 -36 c-49 -51 -46 -64 4 -16 l40 39 52 -51 52 -52
-65 -61 c-57 -55 -59 -58 -13 -21 28 22 57 47 64 56 18 22 23 20 61 -32 54
-74 53 -70 9 -99 -22 -15 -40 -30 -40 -35 0 -5 21 6 46 22 25 17 47 30 48 28
16 -17 66 -106 66 -116 0 -7 -29 -29 -65 -50 -83 -47 -79 -54 6 -8 35 19 67
35 71 35 12 0 67 -116 60 -126 -4 -5 -26 -18 -50 -28 -23 -11 -41 -21 -39 -23
3 -2 25 6 51 17 57 24 53 24 59 3 4 -14 5 -14 6 -2 1 18 -66 160 -117 244
-187 313 -538 579 -889 674 -110 29 -239 51 -288 49 l-40 -1 39 -4z"/>
<path d="M1090 4085 c-24 -24 -42 -47 -39 -49 3 -3 24 17 47 44 54 62 50 64
-8 5z"/>
<path d="M672 4098 c-8 -10 -4 -13 14 -14 20 -2 23 1 13 12 -14 17 -14 17 -27
2z"/>
<path d="M2265 4071 c-490 -167 -851 -531 -1008 -1016 -61 -188 -72 -264 -70
-490 0 -119 5 -212 12 -230 9 -25 10 -20 5 36 l-5 67 83 10 83 11 -81 -4 c-93
-5 -89 -9 -93 88 l-2 57 58 2 58 2 -50 3 c-27 2 -54 8 -58 12 -4 4 -5 34 -1
65 l7 58 41 -6 c23 -3 76 -9 119 -12 l79 -7 -4 24 c-3 23 -10 25 -112 39 -69
9 -111 20 -114 28 -2 7 2 35 8 63 12 48 14 51 40 45 86 -17 86 -17 65 -7 -11
4 -33 13 -50 18 -27 8 -30 13 -28 45 1 21 9 53 17 72 l15 35 72 -24 c100 -35
111 -30 15 5 -43 16 -81 32 -83 34 -5 5 35 104 50 123 7 10 18 8 48 -7 21 -11
44 -20 51 -20 7 1 -8 12 -34 26 -27 13 -48 29 -48 35 0 15 48 107 60 114 6 4
28 -4 48 -18 46 -30 102 -59 102 -53 0 3 -31 24 -70 47 -38 23 -70 43 -70 46
0 12 76 113 86 113 5 0 25 -11 44 -25 50 -37 51 -30 3 13 l-42 37 49 55 49 55
48 -46 c78 -73 93 -78 25 -8 l-63 65 48 47 c26 26 52 47 57 47 5 0 24 -17 43
-37 19 -21 30 -29 24 -18 -5 11 -19 29 -30 39 -12 11 -21 24 -20 30 0 6 24 30
54 54 l54 42 52 -70 c64 -88 76 -86 14 3 -25 36 -45 69 -45 74 0 10 100 73
116 73 5 0 20 -20 34 -45 30 -55 39 -52 11 4 -12 22 -21 45 -21 50 0 9 89 61
103 61 3 0 16 -26 71 -152 24 -57 41 -69 63 -47 8 8 0 35 -27 97 -58 136 -59
125 7 146 32 10 74 24 93 31 19 8 42 16 50 19 10 3 8 4 -5 4 -11 0 -56 -12
-100 -27z"/>
<path d="M2301 4035 c0 -11 6 -33 14 -50 l15 -30 -6 35 c-8 44 -23 75 -23 45z"/>
<path d="M4930 4011 c0 -5 7 -15 17 -22 15 -13 15 -12 4 9 -12 23 -21 28 -21
13z"/>
<path d="M1490 3804 c0 -9 33 -33 44 -34 6 0 0 9 -12 20 -22 21 -32 25 -32 14z"/>
<path d="M2151 3707 c-30 -15 -39 -35 -15 -33 16 1 18 -10 18 -93 1 -66 5 -96
14 -99 9 -3 12 25 12 117 0 67 -1 121 -2 121 -2 0 -14 -6 -27 -13z"/>
<path d="M2261 3704 c-19 -14 -21 -25 -21 -108 0 -97 7 -116 46 -116 38 0 45
21 42 125 -3 89 -5 98 -24 106 -14 5 -29 2 -43 -7z m47 -102 c2 -68 0 -83 -13
-88 -25 -10 -29 2 -26 84 3 82 6 95 24 89 8 -2 13 -35 15 -85z"/>
<path d="M2376 3694 c-3 -9 -6 -55 -6 -103 0 -92 8 -111 45 -111 37 0 45 19
45 115 0 57 -4 95 -12 103 -17 17 -65 15 -72 -4z m58 -21 c7 -22 1 -151 -7
-160 -3 -3 -13 -3 -22 0 -11 5 -15 22 -15 76 0 38 3 76 6 85 8 21 31 20 38 -1z"/>
<path d="M4577 3703 c-4 -3 -2 -12 4 -19 7 -9 -4 -19 -48 -40 -96 -47 -125
-66 -115 -76 11 -11 222 85 222 101 0 25 -47 51 -63 34z"/>
<path d="M4755 3591 c22 -43 38 -49 18 -7 -9 20 -20 36 -25 36 -5 0 -2 -13 7
-29z"/>
<path d="M4614 3586 c-8 -20 3 -36 20 -30 19 7 32 -16 15 -27 -8 -5 -53 -9
-101 -9 -48 0 -89 -4 -92 -9 -9 -14 28 -91 43 -91 10 0 12 8 8 30 -4 17 -3 30
1 31 4 0 38 1 75 2 61 2 71 5 92 29 21 25 25 62 6 72 -25 14 -62 15 -67 2z"/>
<path d="M3232 3538 c-17 -17 -15 -29 3 -22 16 7 18 -5 15 -130 -1 -52 2 -67
12 -64 9 3 14 35 16 116 2 103 1 112 -16 112 -10 0 -23 -5 -30 -12z"/>
<path d="M4599 3440 c-84 -43 -97 -61 -74 -96 21 -32 40 -30 129 10 90 41 115
75 80 110 -23 24 -51 19 -135 -24z m109 -12 c-5 -16 -136 -80 -149 -73 -5 4
-9 10 -9 15 0 10 74 52 98 56 8 1 16 5 20 8 11 11 44 6 40 -6z"/>
<path d="M4661 3332 c-82 -41 -97 -57 -87 -95 10 -43 37 -42 133 5 95 46 112
70 77 109 -23 26 -37 24 -123 -19z m99 -15 c0 -14 -120 -77 -146 -77 -32 0 -6
26 56 57 72 35 90 39 90 20z"/>
<path d="M709 3329 c-43 -43 -16 -73 91 -104 76 -23 86 -24 107 -10 26 17 29
42 10 68 -6 10 -52 28 -100 42 -87 24 -88 24 -108 4z m105 -35 c69 -19 100
-39 74 -49 -25 -10 -158 33 -158 50 0 19 10 19 84 -1z"/>
<path d="M4891 3285 c1 -19 18 -51 18 -35 0 8 -4 22 -9 30 -5 8 -9 11 -9 5z"/>
<path d="M672 3208 c-15 -15 -16 -64 -2 -73 25 -15 173 -52 191 -48 23 6 36
49 22 72 -11 17 -133 60 -173 60 -15 1 -31 -4 -38 -11z m74 -28 c16 -5 48 -14
72 -20 43 -11 60 -40 23 -40 -28 0 -151 40 -151 49 0 22 15 25 56 11z"/>
<path d="M4205 3114 c26 -62 22 -68 -56 -89 -39 -11 -73 -24 -76 -29 -4 -5 0
-7 8 -4 54 21 141 40 148 32 9 -10 31 -94 31 -118 0 -8 -8 -17 -17 -19 -15 -4
-14 -5 3 -6 18 -1 22 -10 31 -72 8 -60 7 -71 -6 -79 -14 -8 -14 -9 2 -10 15 0
17 -10 17 -75 l0 -74 -57 -4 -58 -3 58 -2 57 -2 0 -52 c0 -80 0 -80 -123 -66
-58 7 -108 10 -111 7 -2 -2 -6 -13 -8 -24 -3 -18 7 -21 107 -33 61 -8 112 -16
114 -18 2 -2 0 -30 -5 -61 -6 -42 -13 -58 -24 -57 -8 1 -35 4 -60 7 l-45 6 53
-17 c30 -9 54 -21 54 -27 1 -31 -26 -117 -38 -122 -7 -3 -48 7 -90 21 -96 32
-89 21 9 -15 81 -29 82 -32 47 -113 -22 -52 -22 -52 -92 -22 -55 24 -47 11 12
-19 48 -24 49 -26 38 -53 -7 -15 -23 -44 -35 -65 l-24 -38 -47 28 c-26 14 -56
33 -67 40 -11 7 -24 13 -30 13 -5 0 19 -18 54 -39 35 -22 68 -44 74 -50 11
-11 -58 -121 -77 -121 -6 1 -26 14 -45 30 -19 16 -37 27 -39 25 -5 -4 18 -25
67 -61 13 -10 8 -20 -33 -68 -52 -61 -50 -61 -96 -16 -3 3 -23 21 -45 40 -33
29 -31 25 10 -18 74 -79 83 -82 118 -41 206 242 334 523 377 828 20 145 7 460
-24 562 -2 8 -17 56 -32 107 -15 50 -31 92 -36 92 -5 0 -1 -16 7 -36z"/>
<path d="M186 3115 c-3 -9 -6 -24 -5 -33 0 -9 5 -4 10 12 9 32 6 48 -5 21z"/>
<path d="M626 3071 c-8 -13 58 -62 142 -105 l33 -17 10 31 c7 19 18 30 30 30
24 0 24 15 1 38 -11 11 -32 17 -61 17 -52 0 -66 -20 -22 -30 17 -4 31 -13 31
-21 0 -22 -16 -17 -84 26 -68 43 -72 45 -80 31z"/>
<path d="M171 3038 c0 -9 -4 -25 -7 -35 -5 -17 -5 -17 6 0 6 10 9 25 7 35 -4
15 -5 15 -6 0z"/>
<path d="M4198 2873 c7 -3 16 -2 19 1 4 3 -2 6 -13 5 -11 0 -14 -3 -6 -6z"/>
<path d="M1533 2823 c-9 -3 -13 -26 -13 -64 0 -54 2 -59 18 -51 30 16 42 3 42
-44 0 -37 -3 -44 -19 -44 -11 0 -21 6 -24 13 -2 6 -8 8 -13 4 -11 -11 9 -41
30 -45 32 -7 56 27 56 78 0 51 -13 70 -47 70 -19 0 -23 5 -23 30 0 28 3 30 35
30 35 0 51 19 18 21 -10 0 -25 2 -33 3 -8 2 -21 1 -27 -1z"/>
<path d="M1670 2823 c-26 -10 -30 -25 -30 -115 0 -96 13 -124 54 -112 35 11
39 19 40 114 1 80 -2 94 -19 106 -20 15 -22 15 -45 7z m35 -113 c0 -73 -2 -85
-17 -88 -16 -3 -18 6 -18 88 0 82 2 91 18 88 15 -3 17 -15 17 -88z"/>
<path d="M5003 2765 c0 -22 2 -30 4 -17 2 12 2 30 0 40 -3 9 -5 -1 -4 -23z"/>
<path d="M131 2774 c0 -11 3 -14 6 -6 3 7 2 16 -1 19 -3 4 -6 -2 -5 -13z"/>
<path d="M4165 2720 l-50 -7 53 -1 c29 -1 52 2 52 8 0 6 -1 9 -2 8 -2 0 -25
-4 -53 -8z"/>
<path d="M5014 2595 c0 -49 1 -71 3 -48 2 23 2 64 0 90 -2 26 -3 8 -3 -42z"/>
<path d="M121 2644 c0 -11 3 -14 6 -6 3 7 2 16 -1 19 -3 4 -6 -2 -5 -13z"/>
<path d="M112 2560 c0 -14 2 -19 5 -12 2 6 2 18 0 25 -3 6 -5 1 -5 -13z"/>
<path d="M3920 2562 c-30 -9 -40 -36 -40 -106 0 -93 7 -115 37 -122 40 -10 57
16 61 96 2 38 1 81 -2 95 -7 27 -33 45 -56 37z m25 -113 c0 -72 -2 -84 -17
-87 -16 -3 -18 6 -18 81 0 46 3 87 7 91 19 19 28 -7 28 -85z"/>
<path d="M943 2553 c15 -2 37 -2 50 0 12 2 0 4 -28 4 -27 0 -38 -2 -22 -4z"/>
<path d="M3640 2540 c-8 -15 -8 -26 -2 -32 7 -7 12 -3 17 12 9 27 39 23 43 -7
2 -12 -13 -53 -32 -92 -20 -39 -36 -75 -36 -81 0 -5 20 -10 45 -10 33 0 45 4
45 15 0 9 -9 15 -25 15 -31 0 -31 8 1 71 17 34 24 63 22 87 -3 33 -6 37 -35
40 -24 2 -34 -2 -43 -18z"/>
<path d="M3766 2544 c-11 -29 -7 -189 6 -202 17 -17 44 -15 62 4 12 11 16 36
16 99 0 105 -4 115 -45 115 -21 0 -35 -6 -39 -16z m55 -16 c3 -24 -3 -163 -6
-167 -2 -2 -11 -1 -20 2 -12 5 -15 23 -15 85 0 43 3 82 7 85 11 11 33 8 34 -5z"/>
<path d="M112 2500 c0 -19 2 -27 5 -17 2 9 2 25 0 35 -3 9 -5 1 -5 -18z"/>
<path d="M4670 2445 c0 -8 3 -15 8 -15 4 0 56 -9 115 -19 96 -16 109 -16 114
-3 8 19 -9 46 -31 50 -11 2 -14 -1 -10 -12 5 -13 0 -15 -22 -11 -16 3 -56 9
-88 15 -78 13 -86 13 -86 -5z"/>
<path d="M5003 2385 c0 -27 2 -38 4 -22 2 15 2 37 0 50 -2 12 -4 0 -4 -28z"/>
<path d="M0 2406 c0 -53 90 -132 119 -103 15 15 14 59 -1 55 -23 -4 -62 14
-90 40 -23 21 -28 23 -28 8z"/>
<path d="M4694 2350 c-5 -21 -12 -30 -25 -30 -25 0 -24 -15 1 -40 21 -21 40
-26 40 -11 0 6 16 7 35 4 28 -4 35 -2 35 11 0 10 -9 16 -25 16 -24 0 -45 24
-32 36 3 3 37 -11 76 -30 78 -40 94 -43 89 -20 -2 12 -162 94 -183 94 -3 0 -8
-13 -11 -30z"/>
<path d="M1217 2235 c15 -63 60 -203 87 -267 17 -40 32 -52 21 -18 -5 17 0 23
30 36 21 8 35 17 32 20 -3 3 -20 -2 -37 -11 -37 -19 -41 -16 -63 45 -28 79
-27 81 27 97 26 8 46 17 43 20 -3 3 -27 -2 -52 -10 -45 -16 -46 -16 -54 6 -5
12 -12 38 -15 57 -4 19 -10 43 -12 52 -4 13 5 19 38 26 l43 10 -51 -1 -50 -1
13 -61z"/>
<path d="M4992 2270 c0 -14 2 -19 5 -12 2 6 2 18 0 25 -3 6 -5 1 -5 -13z"/>
<path d="M4652 2234 c-25 -17 -29 -56 -8 -74 8 -6 54 -18 102 -27 84 -14 88
-14 107 5 14 14 18 28 13 45 -6 27 -36 41 -116 52 -25 4 -52 8 -60 11 -9 2
-26 -3 -38 -12z m115 -35 c52 -9 63 -14 63 -31 0 -14 -5 -18 -17 -15 -10 3
-36 8 -58 11 -80 13 -95 18 -95 32 0 17 23 18 107 3z"/>
<path d="M1380 2170 c-13 -9 -13 -10 0 -10 8 0 22 5 30 10 13 9 13 10 0 10 -8
0 -22 -5 -30 -10z"/>
<path d="M4972 2145 c0 -16 2 -22 5 -12 2 9 2 23 0 30 -3 6 -5 -1 -5 -18z"/>
<path d="M2860 2150 c0 -5 5 -10 10 -10 6 0 10 5 10 10 0 6 -4 10 -10 10 -5 0
-10 -4 -10 -10z"/>
<path d="M741 2100 c-91 -28 -108 -42 -97 -83 9 -39 34 -40 127 -8 91 32 105
44 96 83 -10 37 -31 38 -126 8z m94 -20 c0 -8 -26 -24 -58 -36 -76 -30 -101
-33 -105 -13 -2 11 18 22 70 41 77 28 93 29 93 8z"/>
<path d="M4623 2108 c-38 -49 -16 -77 73 -94 100 -19 131 -18 144 6 13 25 5
57 -18 69 -16 8 -144 31 -175 31 -8 0 -19 -6 -24 -12z m135 -35 c39 -5 63 -25
49 -39 -8 -8 -157 17 -163 27 -11 19 9 31 40 25 17 -4 51 -10 74 -13z"/>
<path d="M2610 1975 c0 -65 4 -115 9 -115 6 0 11 17 13 37 3 34 6 37 33 38
l30 0 3 78 3 77 -46 0 -45 0 0 -115z m68 42 c2 -37 -1 -49 -13 -54 -21 -8 -35
13 -35 53 0 31 17 57 35 51 5 -2 11 -25 13 -50z"/>
<path d="M2752 2078 c-22 -22 -14 -57 18 -73 30 -16 39 -38 20 -50 -6 -4 -18
-1 -26 6 -19 16 -30 4 -14 -16 8 -9 25 -15 39 -13 22 3 26 9 29 40 3 32 -1 39
-27 53 -17 8 -31 20 -31 26 0 16 31 23 40 8 11 -17 24 -5 17 16 -7 18 -48 20
-65 3z"/>
<path d="M2860 2010 c0 -47 4 -80 10 -80 6 0 10 33 10 80 0 47 -4 80 -10 80
-6 0 -10 -33 -10 -80z"/>
<path d="M4941 2018 c0 -9 -4 -25 -7 -35 -5 -17 -5 -17 6 0 6 10 9 25 7 35 -4
15 -5 15 -6 0z"/>
<path d="M775 1983 c-38 -13 -75 -29 -82 -35 -17 -14 -16 -53 2 -71 18 -18 82
-7 163 29 43 19 52 27 52 48 0 29 -24 57 -48 55 -9 -1 -48 -12 -87 -26z m103
-25 c2 -11 -17 -21 -65 -36 -78 -25 -107 -28 -101 -10 5 14 136 68 153 64 6
-1 11 -9 13 -18z"/>
<path d="M3458 1899 c-10 -5 -18 -17 -18 -24 0 -20 10 -19 25 2 13 18 35 10
35 -12 0 -8 -13 -41 -30 -73 -16 -33 -30 -65 -30 -71 0 -6 17 -11 41 -11 24 0
38 4 34 10 -3 6 -15 10 -26 10 -25 0 -24 8 6 68 30 60 31 74 7 95 -21 20 -21
20 -44 6z"/>
<path d="M3555 1888 c-11 -16 -12 -24 -4 -27 7 -2 16 4 21 13 5 9 13 14 19 11
13 -9 11 -62 -3 -69 -10 -5 -10 -7 0 -12 15 -7 16 -74 1 -74 -7 0 -17 7 -24
17 -7 9 -14 12 -18 6 -13 -20 18 -46 46 -39 25 6 26 8 25 89 0 45 -5 88 -10
95 -16 18 -35 15 -53 -10z"/>
<path d="M3680 1903 c-8 -3 -18 -11 -22 -17 -11 -17 -9 -135 2 -157 12 -21 40
-25 58 -7 16 16 16 160 0 176 -13 13 -15 13 -38 5z m28 -99 c-2 -53 -6 -69
-18 -69 -20 0 -28 134 -8 146 22 14 29 -6 26 -77z"/>
<path d="M913 1893 c-9 -3 -9 -12 -2 -30 5 -14 8 -27 6 -29 -1 -2 -32 2 -69 8
-52 8 -71 8 -94 -3 -32 -16 -43 -51 -24 -75 16 -19 71 -19 64 0 -3 7 -13 13
-22 12 -9 0 -18 7 -20 16 -5 26 36 32 119 18 83 -14 94 -8 78 41 -14 41 -20
48 -36 42z"/>
<path d="M2570 1645 c0 -110 11 -149 24 -85 3 17 10 30 16 30 6 0 16 -13 21
-30 6 -16 17 -30 25 -30 18 0 18 3 -6 50 -19 38 -19 42 -4 71 8 17 13 33 10
36 -8 8 -34 -16 -41 -38 -13 -39 -25 -17 -25 46 0 37 -4 65 -10 65 -6 0 -10
-45 -10 -115z"/>
<path d="M2700 1645 c0 -96 3 -115 15 -115 11 0 15 11 15 43 0 40 2 44 33 52
30 9 32 13 35 58 4 60 -9 77 -59 77 l-39 0 0 -115z m80 55 c0 -32 -11 -50 -31
-50 -15 0 -19 7 -19 38 0 21 3 42 6 45 11 11 44 -13 44 -33z"/>
<path d="M2840 1675 c-17 -21 -4 -32 20 -18 14 10 21 9 31 -3 15 -18 4 -31
-31 -36 -22 -3 -25 -8 -25 -43 l0 -40 43 -2 42 -2 0 64 c0 35 -3 70 -6 79 -8
21 -57 21 -74 1z m54 -84 c9 -14 -4 -41 -19 -41 -15 0 -24 19 -17 38 5 14 28
16 36 3z"/>
<path d="M730 1484 c0 -6 7 -19 16 -30 14 -18 14 -18 3 6 -14 31 -19 36 -19
24z"/>
<path d="M2390 1444 c0 -4 8 -13 18 -21 12 -10 14 -16 5 -19 -18 -8 -16 -44 2
-44 11 0 15 -8 13 -22 -4 -30 12 -38 26 -15 9 14 8 20 -4 27 -44 27 -44 27
-27 45 22 21 21 32 -2 45 -23 12 -31 13 -31 4z m52 -126 c-7 -7 -12 -8 -12 -2
0 6 3 14 7 17 3 4 9 5 12 2 2 -3 -1 -11 -7 -17z"/>
<path d="M3049 1423 c-11 -15 -11 -16 1 -5 19 17 27 15 33 -8 3 -11 14 -20 25
-20 16 0 19 -7 18 -37 -1 -33 -4 -38 -23 -36 -21 3 -22 2 -6 -17 11 -12 19
-16 24 -9 3 6 9 10 13 10 20 -3 23 1 18 24 -2 14 -9 25 -14 25 -6 0 -6 5 1 14
13 16 4 47 -13 45 -25 -3 -36 2 -36 16 0 20 -25 19 -41 -2z"/>
<path d="M2306 1414 c-11 -28 -6 -38 9 -18 12 15 16 16 24 6 10 -17 43 -12 49
6 3 9 -3 11 -21 7 -14 -4 -28 -2 -31 4 -10 16 -23 14 -30 -5z"/>
<path d="M3056 1391 c-3 -5 1 -11 9 -15 8 -3 15 -1 15 4 0 13 -18 22 -24 11z"/>
<path d="M2333 1359 c-1 -10 2 -19 8 -19 11 0 12 27 1 34 -4 2 -9 -4 -9 -15z"/>
<path d="M4222 1348 c-26 -26 -12 -59 50 -124 75 -79 109 -84 131 -21 5 14
-10 36 -60 88 -66 69 -95 83 -121 57z m97 -72 c39 -40 52 -59 47 -72 -6 -15
-16 -8 -66 41 -33 33 -60 65 -60 72 0 26 27 12 79 -41z"/>
<path d="M3207 1279 c-21 -21 -43 -39 -50 -40 -7 0 -33 -4 -59 -8 -27 -4 -51
-5 -54 -2 -3 3 -9 6 -12 6 -4 1 -18 7 -32 14 -25 14 -25 14 -6 -7 25 -28 80
-46 123 -39 45 8 107 50 122 84 17 38 10 36 -32 -8z"/>
<path d="M2475 1267 c-16 -12 -30 -21 -30 -19 0 2 -13 -2 -30 -8 -16 -7 -50
-10 -75 -7 -40 5 -43 4 -25 -9 43 -31 138 -11 174 36 26 36 25 36 -14 7z"/>
<path d="M4150 1267 c-16 -8 -26 -23 -28 -41 -3 -23 8 -39 61 -93 55 -54 69
-64 89 -58 24 7 48 32 48 49 0 11 -88 108 -125 138 -17 14 -25 15 -45 5z m79
-81 c39 -40 52 -59 47 -72 -6 -15 -16 -8 -66 41 -33 33 -60 65 -60 72 0 26 27
12 79 -41z"/>
<path d="M1247 1170 c-37 -38 -67 -74 -67 -80 0 -12 36 -50 48 -50 13 0 70 45
113 88 44 45 51 85 20 102 -34 18 -46 11 -114 -60z m100 24 c4 -11 -104 -124
-119 -124 -21 0 -4 40 31 74 22 21 37 44 34 52 -3 9 4 12 23 11 15 -1 29 -7
31 -13z"/>
<path d="M3350 1119 c0 -51 4 -78 10 -74 6 3 10 19 10 36 0 40 16 37 30 -6 6
-19 15 -35 20 -35 5 0 0 22 -10 49 -15 42 -15 53 -4 80 17 41 2 40 -19 -1
l-16 -33 0 33 c-1 17 -5 32 -11 32 -6 0 -10 -34 -10 -81z"/>
<path d="M3451 1128 c-1 -42 3 -79 8 -82 4 -3 6 27 4 67 -6 100 -11 106 -12
15z"/>
<path d="M3587 1193 c-11 -10 -8 -25 3 -18 6 4 10 -20 10 -64 0 -41 4 -71 10
-71 6 0 10 33 10 80 0 60 -3 80 -13 80 -8 0 -17 -3 -20 -7z"/>
<path d="M3715 1189 c-11 -18 -8 -130 4 -142 22 -22 46 6 46 54 0 38 -3 44
-22 47 -13 2 -23 10 -23 19 0 10 6 14 20 10 13 -3 20 0 20 9 0 16 -36 19 -45
3z m35 -95 c0 -24 -4 -34 -12 -32 -24 8 -22 68 2 68 5 0 10 -16 10 -36z"/>
<path d="M4047 1172 c-28 -31 -20 -57 36 -114 78 -82 113 -93 135 -43 14 31
-19 83 -76 119 -7 4 -24 1 -38 -9 -13 -9 -29 -13 -34 -10 -18 11 -10 33 15 39
24 6 36 26 16 26 -5 0 -16 2 -23 5 -8 3 -22 -3 -31 -13z m115 -99 c30 -28 37
-53 15 -53 -7 0 -25 13 -40 28 -49 51 -26 74 25 25z"/>
<path d="M3952 1078 c-14 -14 -16 -44 -3 -52 5 -4 11 0 14 6 3 8 33 -14 76
-57 52 -51 74 -66 82 -58 8 8 -9 32 -66 92 -43 45 -81 81 -84 81 -4 0 -12 -5
-19 -12z"/>
<path d="M4456 1074 c-5 -14 -4 -15 9 -4 17 14 19 20 6 20 -5 0 -12 -7 -15
-16z"/>
<path d="M3490 1050 c0 -5 5 -10 10 -10 6 0 10 5 10 10 0 6 -4 10 -10 10 -5 0
-10 -4 -10 -10z"/>
<path d="M3667 1053 c-4 -3 -7 -11 -7 -17 0 -6 5 -5 12 2 6 6 9 14 7 17 -3 3
-9 2 -12 -2z"/>
<path d="M4409 1023 l-24 -28 28 24 c25 23 32 31 24 31 -2 0 -14 -12 -28 -27z"/>
<path d="M3487 972 c-10 -10 -17 -23 -17 -28 0 -4 7 2 16 15 13 19 23 22 48
17 22 -4 27 -3 16 4 -23 15 -45 12 -63 -8z"/>
<path d="M3500 935 c0 -23 3 -27 10 -15 9 13 11 13 20 0 15 -22 12 -30 -9 -30
-11 0 -27 10 -35 22 -9 12 -16 18 -16 12 0 -6 9 -19 20 -29 16 -15 26 -17 47
-9 14 5 28 15 29 22 1 7 0 8 -3 2 -8 -17 -23 0 -23 28 0 21 -2 24 -10 12 -9
-13 -11 -13 -20 0 -7 12 -10 8 -10 -15z"/>
<path d="M4312 923 c-21 -21 -65 -62 -97 -91 -31 -29 -55 -55 -54 -57 2 -1 49
39 104 91 55 51 97 94 93 94 -3 0 -24 -17 -46 -37z"/>
<path d="M2095 931 c-113 -21 -236 -117 -235 -183 0 -7 9 6 19 28 21 47 32 57
54 48 13 -5 13 -11 -1 -55 -10 -30 -22 -49 -31 -50 -11 0 -10 -3 4 -8 28 -11
49 -3 35 14 -8 9 -6 24 5 53 15 37 20 40 48 38 18 -2 22 -1 10 1 -31 6 -29 25
5 50 19 14 37 19 55 16 15 -3 27 -6 27 -8 0 -10 -33 -65 -39 -65 -5 0 -6 -12
-3 -27 5 -26 5 -26 13 -5 5 13 17 22 31 23 17 1 18 2 6 6 -22 5 -23 31 -4 52
11 12 28 15 60 13 43 -4 46 -6 46 -33 0 -21 -6 -32 -22 -39 l-23 -9 23 0 c18
-1 22 -7 22 -30 0 -25 -5 -30 -27 -34 l-28 -4 28 -2 c24 -1 27 -5 27 -35 l0
-34 -59 -7 c-70 -8 -81 -4 -82 33 -1 23 -3 22 -8 -8 -5 -31 -10 -35 -46 -42
-31 -5 -43 -3 -54 10 -13 16 -13 16 -8 -1 12 -32 -24 -33 -50 -1 -31 39 -30
21 2 -20 56 -73 202 -122 340 -113 153 10 255 63 305 161 17 32 28 61 25 65
-3 3 -21 4 -39 3 -29 -3 -35 1 -45 25 l-11 28 5 -27 c5 -24 2 -28 -17 -29
l-23 0 23 -9 c26 -11 26 -11 8 -55 -12 -29 -20 -35 -45 -35 -45 0 -61 10 -62
39 l-1 26 -7 -25 c-7 -26 -8 -26 -102 -22 -39 2 -40 3 -37 35 2 19 8 31 16 30
6 -2 12 2 12 7 0 6 -6 10 -14 10 -11 0 -14 16 -14 70 l0 70 33 0 c18 0 40 3
49 6 10 4 20 -5 30 -25 20 -38 20 -39 -6 -44 -20 -4 -19 -4 5 -6 22 -1 27 -6
28 -28 l1 -28 7 30 c5 23 13 32 36 37 30 7 30 7 -4 4 -28 -2 -36 2 -52 28
l-19 31 25 8 c19 7 32 3 55 -13 16 -12 30 -26 30 -31 0 -5 10 -19 22 -31 16
-16 20 -17 15 -4 -9 22 18 32 40 15 9 -8 22 -27 29 -44 7 -16 13 -23 14 -14 1
38 -59 97 -135 135 -70 35 -82 37 -178 40 -56 1 -120 -1 -142 -5z m105 -27 c0
-23 -3 -25 -37 -22 -28 2 -37 7 -35 18 3 12 1 13 -9 3 -15 -15 -49 -17 -49 -4
0 11 48 24 60 16 6 -3 18 -1 27 4 30 17 43 12 43 -15z m90 15 c30 1 58 -15 47
-26 -4 -4 -17 -2 -27 5 -23 14 -33 15 -26 3 7 -11 -17 -21 -50 -21 -19 0 -24
5 -24 26 0 24 3 26 28 20 15 -4 38 -7 52 -7z m-302 -59 c-29 -29 -58 -40 -58
-21 0 11 60 51 77 51 6 0 -2 -13 -19 -30z m461 9 c25 -15 31 -23 22 -32 -8 -8
-19 -3 -43 21 -37 37 -28 41 21 11z m91 -170 c0 -19 -36 -89 -45 -89 -2 0 -10
2 -18 6 -12 4 -12 10 0 47 19 54 21 57 44 57 13 0 19 -7 19 -21z m-342 -96 c3
-30 2 -31 -43 -35 -47 -3 -69 9 -77 42 -3 15 46 29 92 25 20 -1 26 -8 28 -32z
m140 22 c9 -9 -34 -65 -46 -60 -8 3 -29 5 -48 5 -31 0 -34 3 -34 28 0 16 3 32
8 36 6 7 112 -1 120 -9z m-268 -26 c11 -26 11 -32 -1 -40 -23 -14 -34 -11 -64
21 -31 32 -28 35 46 49 4 0 12 -13 19 -30z m359 14 c3 -2 -8 -17 -25 -33 -22
-22 -35 -27 -56 -23 -27 5 -27 5 -11 38 15 31 19 33 52 28 20 -3 38 -8 40 -10z
m-444 -33 c16 -16 25 -30 19 -30 -19 0 -75 41 -69 50 10 16 19 12 50 -20z
m488 23 c4 -3 -9 -17 -29 -31 -44 -30 -56 -22 -18 12 31 27 37 30 47 19z
m-275 -70 c4 -27 -8 -29 -48 -8 -41 21 -38 37 8 33 30 -2 38 -7 40 -25z m92
18 c0 -12 -46 -41 -65 -41 -9 0 -15 9 -15 25 0 23 4 25 40 25 22 0 40 -4 40
-9z m-180 -11 c8 -5 12 -12 8 -15 -9 -9 -48 4 -48 16 0 12 21 11 40 -1z m230
1 c0 -9 -41 -23 -48 -16 -2 2 -1 8 3 14 8 13 45 15 45 2z"/>
<path d="M2607 820 c-20 -70 -20 -70 -7 -70 6 0 15 11 22 24 8 19 20 26 46 28
30 3 37 8 43 32 11 40 5 46 -45 46 l-43 0 -16 -60z m66 15 c1 -5 -6 -11 -15
-13 -11 -2 -18 3 -18 13 0 17 30 18 33 0z"/>
<path d="M2730 854 c-6 -14 -13 -43 -16 -65 -6 -32 -4 -38 8 -34 9 4 20 16 26
28 l11 22 7 -22 c3 -13 14 -23 25 -23 12 0 16 5 13 15 -3 8 1 22 10 30 9 9 16
30 16 46 0 28 -2 29 -45 29 -40 0 -47 -3 -55 -26z m68 -16 c-3 -7 -11 -13 -18
-13 -7 0 -15 6 -17 13 -3 7 4 12 17 12 13 0 20 -5 18 -12z"/>
<path d="M2863 868 c-12 -16 -33 -76 -33 -94 0 -19 84 -19 99 0 6 7 14 34 17
60 l7 46 -40 0 c-22 0 -45 -6 -50 -12z m48 -30 c-1 -5 -1 -17 -1 -28 0 -13 -7
-20 -20 -20 -20 0 -25 15 -14 45 6 15 36 18 35 3z"/>
<path d="M2976 858 c-8 -13 -18 -40 -21 -60 l-7 -38 51 0 c39 0 51 4 51 15 0
10 -10 15 -30 15 -32 0 -33 2 -24 38 5 17 14 22 39 22 20 0 35 6 39 15 4 12
-4 15 -39 15 -35 0 -48 -5 -59 -22z"/>
<path d="M3091 861 c-6 -10 -13 -37 -17 -60 l-7 -41 46 0 c31 0 47 5 51 15 4
12 -3 15 -30 15 -21 0 -33 4 -29 10 3 6 22 10 41 10 19 0 34 5 34 10 0 6 -13
10 -30 10 -16 0 -30 5 -30 10 0 6 16 10 35 10 24 0 35 5 35 15 0 24 -86 21
-99 -4z"/>
<path d="M3213 868 c-6 -7 -13 -23 -16 -35 -4 -20 -1 -23 23 -23 43 0 46 -18
3 -22 -59 -5 -54 -28 6 -28 46 0 53 3 61 26 15 39 13 44 -25 44 -19 0 -35 5
-35 10 0 6 15 10 34 10 21 0 36 6 40 15 4 12 -4 15 -38 15 -24 0 -48 -6 -53
-12z"/>
<path d="M3333 868 c-6 -7 -13 -23 -16 -35 -4 -20 -1 -23 23 -23 43 0 46 -18
3 -22 -58 -5 -54 -28 5 -28 47 0 51 2 61 31 6 18 11 34 11 35 0 2 -13 4 -29 4
-17 0 -33 5 -36 10 -4 6 8 10 28 10 22 0 37 6 41 15 4 12 -4 15 -38 15 -24 0
-48 -6 -53 -12z"/>
<path d="M3475 751 c-6 -21 -11 -21 -398 -22 -216 0 -417 0 -447 1 -30 1 -52
-1 -49 -5 4 -3 202 -5 442 -5 422 0 436 0 439 -19 3 -19 5 -19 73 3 l70 22
-45 16 c-25 9 -52 19 -62 23 -11 4 -18 0 -23 -14z"/>
<path d="M2325 729 c-37 -6 -37 -6 -8 -8 17 0 35 -6 38 -11 4 -7 11 -8 18 -1
7 5 23 11 37 13 21 3 19 5 -10 8 -19 3 -53 2 -75 -1z"/>
<path d="M2010 720 c0 -5 5 -10 11 -10 5 0 7 5 4 10 -3 6 -8 10 -11 10 -2 0
-4 -4 -4 -10z"/>
<path d="M2040 719 c0 -5 9 -9 20 -9 11 0 20 4 20 8 0 4 -9 8 -20 9 -11 1 -20
-2 -20 -8z"/>
<path d="M2255 720 c4 -6 11 -8 16 -5 14 9 11 15 -7 15 -8 0 -12 -5 -9 -10z"/>
<path d="M1861 684 c0 -11 3 -14 6 -6 3 7 2 16 -1 19 -3 4 -6 -2 -5 -13z"/>
<path d="M1931 674 c0 -11 3 -14 6 -6 3 7 2 16 -1 19 -3 4 -6 -2 -5 -13z"/>
<path d="M2615 674 c-22 -22 -16 -59 10 -60 39 -2 39 -7 1 -13 -58 -9 -59 -31
-2 -31 35 0 48 5 56 19 18 35 12 51 -20 51 -16 0 -30 5 -30 10 0 6 16 10 35
10 24 0 35 5 35 15 0 21 -64 20 -85 -1z"/>
<path d="M2726 663 c4 -16 7 -43 7 -60 -2 -37 21 -46 32 -14 3 11 19 36 36 57
32 41 23 60 -12 28 -19 -18 -21 -18 -30 -1 -6 9 -17 17 -26 17 -12 0 -13 -6
-7 -27z"/>
<path d="M2840 664 c-15 -38 -13 -44 14 -44 40 0 40 -19 -1 -22 -50 -4 -57
-28 -8 -28 49 0 75 15 75 45 0 20 -5 25 -25 25 -14 0 -25 5 -25 10 0 6 14 10
30 10 20 0 30 5 30 15 0 11 -11 15 -40 15 -34 0 -42 -4 -50 -26z"/>
<path d="M2957 683 c-12 -11 -7 -23 9 -23 16 0 16 -1 -2 -67 -5 -17 -2 -23 9
-23 10 0 21 16 29 41 7 25 19 44 30 47 10 2 18 11 18 18 0 10 -13 14 -43 14
-24 0 -47 -3 -50 -7z"/>
<path d="M3072 678 c-14 -17 -33 -89 -26 -100 9 -15 81 -9 88 7 4 11 -2 15
-24 15 -17 0 -30 5 -30 10 0 6 16 10 35 10 19 0 35 5 35 10 0 6 -11 10 -24 10
-14 0 -28 5 -31 10 -4 6 8 10 29 10 25 0 36 4 36 15 0 19 -73 21 -88 3z"/>
<path d="M3166 641 c-9 -28 -16 -55 -16 -60 0 -22 21 -10 31 17 l11 27 10 -27
c5 -16 13 -28 18 -28 5 0 18 12 29 28 22 27 22 27 19 3 -5 -43 19 -33 36 15 9
26 16 54 16 61 0 25 -35 12 -60 -21 -26 -35 -40 -31 -40 12 0 15 -6 22 -19 22
-14 0 -23 -13 -35 -49z"/>
<path d="M3342 678 c-5 -7 -13 -23 -16 -35 -7 -20 -4 -23 23 -23 17 0 31 -4
31 -10 0 -5 -16 -10 -35 -10 -24 0 -35 -5 -35 -15 0 -26 78 -17 97 12 19 29
10 57 -17 50 -11 -3 -23 -1 -26 4 -3 5 8 9 24 9 17 0 32 6 36 15 4 12 -3 15
-33 15 -21 0 -43 -6 -49 -12z"/>
<path d="M4178 563 c7 -3 16 -2 19 1 4 3 -2 6 -13 5 -11 0 -14 -3 -6 -6z"/>
<path d="M3975 440 c-3 -5 -1 -10 4 -10 6 0 11 5 11 10 0 6 -2 10 -4 10 -3 0
-8 -4 -11 -10z"/>
<path d="M3580 162 c0 -6 -8 -13 -17 -15 -16 -4 -16 -5 -1 -6 18 -1 34 16 24
26 -3 4 -6 1 -6 -5z"/>
</g>
</svg>
